<svg fill="none" height="64" viewBox="0 0 64 64" width="64" xmlns="http://www.w3.org/2000/svg" xmlns:xlink="http://www.w3.org/1999/xlink"><clipPath id="a"><path d="m0 0h64v64h-64z"/></clipPath><mask id="b" height="41" maskUnits="userSpaceOnUse" width="28" x="18" y="12"><path d="m45.5115 12.0889h-27.0222v40.5333h27.0222z" fill="#fff"/></mask><g clip-path="url(#a)"><path d="m64 0h-64v64h64z" fill="#1e1e1e"/><g mask="url(#b)"><path d="m32 32.3557c0-1.7917.7117-3.51 1.9787-4.7769 1.2669-1.2669 2.9852-1.9787 4.7769-1.9787 1.7916 0 3.5099.7118 4.7769 1.9787 1.2669 1.2669 1.9786 2.9852 1.9786 4.7769 0 1.7916-.7117 3.5099-1.9786 4.7769-1.267 1.2669-2.9853 1.9786-4.7769 1.9786-1.7917 0-3.51-.7117-4.7769-1.9786-1.267-1.267-1.9787-2.9853-1.9787-4.7769z" fill="#1abcfe"/><path d="m18.4893 45.8664c0-1.7917.7117-3.51 1.9786-4.7769 1.267-1.2669 2.9853-1.9787 4.7769-1.9787h6.7556v6.7556c0 1.7917-.7117 3.51-1.9787 4.7769-1.2669 1.2669-2.9852 1.9786-4.7769 1.9786-1.7916 0-3.5099-.7117-4.7769-1.9786-1.2669-1.2669-1.9786-2.9852-1.9786-4.7769z" fill="#0acf83"/><path d="m32 12.0889v13.5111h6.7556c1.7916 0 3.5099-.7117 4.7769-1.9786 1.2669-1.267 1.9786-2.9853 1.9786-4.7769 0-1.7917-.7117-3.51-1.9786-4.7769-1.267-1.267-2.9853-1.9787-4.7769-1.9787z" fill="#ff7262"/><path d="m18.4893 18.8445c0 1.7916.7117 3.5099 1.9786 4.7769 1.267 1.2669 2.9853 1.9786 4.7769 1.9786h6.7556v-13.5111h-6.7556c-1.7916 0-3.5099.7117-4.7769 1.9787-1.2669 1.2669-1.9786 2.9852-1.9786 4.7769z" fill="#f24e1e"/><path d="m18.4893 32.3557c0 1.7916.7117 3.5099 1.9786 4.7769 1.267 1.2669 2.9853 1.9786 4.7769 1.9786h6.7556v-13.5111h-6.7556c-1.7916 0-3.5099.7118-4.7769 1.9787-1.2669 1.2669-1.9786 2.9852-1.9786 4.7769z" fill="#a259ff"/></g></g></svg>