<svg fill="none" height="42" viewBox="0 0 160 42" width="160" xmlns="http://www.w3.org/2000/svg" xmlns:xlink="http://www.w3.org/1999/xlink"><clipPath id="a"><path d="m0 .126709h160v41.7466h-160z"/></clipPath><g clip-path="url(#a)"><path clip-rule="evenodd" d="m119.353 12.0593c3.371-7.11478 10.739-11.932591 19.72-11.932591 12.183 0 20.927 8.900611 20.927 20.562691v.0492c0 11.9725-9.005 21.1347-21.288 21.1347-8.84 0-16.173-4.9093-19.469-12.1337-3.254 7.2699-10.462 12.1337-19.4109 12.1337-12.0774 0-21.3419-9.1622-21.3419-20.8738 0-11.71333 9.3159-20.872791 21.7038-20.872791 8.93 0 16.014 4.784041 19.159 11.932591zm-19.3647 20.9643c6.8687 0 11.2967-5.3086 11.2967-12.075v-.0538c0-6.6614-4.738-11.92114-11.2967-11.92114-6.82 0-11.6622 5.10354-11.6622 12.02584 0 6.767 4.7372 12.0241 11.6622 12.0241zm38.8797 0c6.87 0 11.296-5.3086 11.296-12.075v-.0538c0-6.6614-4.739-11.92114-11.296-11.92114-6.82 0-11.66 5.10354-11.66 12.02584 0 6.767 4.736 12.0241 11.66 12.0241zm-112.3715-24.15249-8.9563 10.51449 10.6709 12.7028c3.4971 4.1426 5.4936 6.4728 6.6032 7.7678l.0005.0006.0001.0002.0007.0008c.6737.7863 1.0201 1.1906 1.1769 1.3873h-12.325l-.0351-.0483c-.1411-.1884-.6106-.7795-1.4949-1.8926-1.0756-1.3538-2.7648-3.48-5.2225-6.5931l-7.12795-9.0032-.10516-.1431v17.6804h-9.68189v-40.598471h9.68189v15.876971l.00277.1334 6.39974-8.46252c1.5258-2.01986 2.6792-3.54329 3.5369-4.67609l.0008-.00109c1.2187-1.60962 1.8401-2.4303 2.0839-2.765821l.0705-.10485h11.5172c-.1157.132757-.3874.465431-.85 1.031641v.00002c-.9916 1.21385-2.8599 3.501-5.9472 7.19272zm11.8629 8.95389v-16.96857-.209701h4.8397 4.8422v.15633 17.021941 5.2034 18.1171.0996h-4.6321-5.0498v-.1536-18.0631zm37.1657 15.3036h-10.0459c-.2097 0-.2097-.0513-.2097-.2596v-32.222271h-9.6308v40.598471h21.6546v-8.1166z" fill="#111" fill-rule="evenodd"/></g></svg>