<svg fill="none" height="64" viewBox="0 0 64 64" width="64" xmlns="http://www.w3.org/2000/svg" xmlns:xlink="http://www.w3.org/1999/xlink"><clipPath id="a"><path d="m0 0h64v64h-64z"/></clipPath><g clip-path="url(#a)"><path d="m64 0h-64v64h64z" fill="#fff"/><path clip-rule="evenodd" d="m32.0004 18c-5.8672 0-9.5332 3.0002-11.0006 9.0006 2.2003-3.0002 4.767-4.1251 7.7002-3.3755 1.6735.4276 2.8702 1.6696 4.1937 3.0446 2.1571 2.2391 4.654 4.8303 10.1065 4.8303 5.8663 0 9.5332-3.0002 10.9998-8.9997-2.1994 3.0002-4.7662 4.125-7.6993 3.3746-1.6744-.4276-2.8711-1.6696-4.1946-3.0437-2.1572-2.2408-4.6532-4.8312-10.1057-4.8312zm-11.0006 13.5c-5.8663 0-9.5332 3.0002-10.9998 9.0006 2.2003-3.0002 4.767-4.1251 7.6993-3.3755 1.6744.4276 2.8711 1.6696 4.1946 3.0446 2.1572 2.2391 4.6532 4.8303 10.1065 4.8303 5.8664 0 9.5332-2.9993 10.9998-8.9997-2.2003 3.0002-4.767 4.125-7.7002 3.3754-1.6735-.4284-2.8702-1.6704-4.1937-3.0445-2.1572-2.2391-4.654-4.8312-10.1065-4.8312z" fill="#38bdf8" fill-rule="evenodd"/></g></svg>