<svg fill="none" height="168" viewBox="0 0 337 168" width="337" xmlns="http://www.w3.org/2000/svg"><g stroke-width="2"><path d="m312.782 3.05671c13.294 8.38719 23.218 41.44289 23.218 80.94329 0 39.5-9.924 72.556-23.218 80.943m0-161.88629c-2.133-1.34603-4.354-2.05671-6.633-2.05671-11.556 0-21.578 18.2565-26.54 44.962 4.494.3869 8.765 1.5535 12.677 3.3641 3.829-23.1206 11.368-40.51035 20.496-46.26939zm0 161.88629c-2.133 1.346-4.354 2.057-6.633 2.057-11.556 0-21.578-18.257-26.54-44.962 4.494-.387 8.765-1.554 12.677-3.364 3.829 23.121 11.368 40.51 20.496 46.269z" stroke="#000"/><g stroke="#40d251"><path d="m314.439 83.9998c0 15.3713-9.074 28.6212-22.154 34.6742-3.913 1.81-8.183 2.977-12.677 3.364-1.091.094-2.196.142-3.312.142-21.066 0-38.144-17.094-38.144-38.1802s17.078-38.18 38.144-38.18c1.116 0 2.221.048 3.312.142 4.494.3869 8.764 1.5536 12.677 3.3642 13.08 6.0529 22.154 19.3026 22.154 34.6738z"/><ellipse cx="168.501" cy="83.9998" rx="38.1436" ry="38.18"/><ellipse cx="168.501" cy="83.9998" rx="38.1436" ry="38.18"/></g><path d="m24.2178 3.05671c-13.2938 8.38719-23.2178 41.44289-23.2178 80.94329 0 39.5 9.924 72.556 23.2178 80.943m0-161.88629c2.1335-1.34603 4.3537-2.05671 6.6337-2.05671 11.5557 0 21.5779 18.2565 26.5391 44.962-4.4934.3869-8.7642 1.5535-12.6767 3.3641-3.8287-23.1206-11.368-40.51036-20.4961-46.26939zm0 161.88629c2.1335 1.346 4.3537 2.057 6.6337 2.057 11.5557 0 21.5779-18.257 26.5391-44.962-4.4934-.387-8.7642-1.554-12.6767-3.364-3.8287 23.121-11.368 40.51-20.4961 46.269z" stroke="#000"/><path d="m98.8457 83.9998c0 21.0862-17.0774 38.1802-38.1435 38.1802-1.116 0-2.2208-.048-3.3124-.142-4.4934-.387-8.7642-1.554-12.6767-3.364-13.0796-6.053-22.1545-19.3029-22.1545-34.6742 0-15.3712 9.0749-28.6209 22.1545-34.6738 3.9125-1.8106 8.1833-2.9773 12.6767-3.3642 1.0916-.094 2.1964-.142 3.3124-.142 21.0661 0 38.1435 17.0938 38.1435 38.18z" stroke="#40d251"/></g></svg>