<svg fill="none" height="169" viewBox="0 0 144 169" width="144" xmlns="http://www.w3.org/2000/svg"><g stroke-width="2"><path d="m72 82.7734-71-39.2512m71 39.2512v84.2266m0-84.2266 71-39.2512m-142 0v84.2268l71 39.251m-71-123.4778 34.2759-19.9358m36.7241 143.4136 71-39.251v-84.2268m0 0-34.276-19.9358" stroke="#000"/><path d="m108.724 18.9901c0-9.93564-16.4423-17.9901-36.7245-17.9901s-36.7241 8.05446-36.7241 17.9901m73.4486 0c0 9.9357-16.4423 17.9902-36.7245 17.9902s-36.7241-8.0545-36.7241-17.9902m73.4486 0v4.5963 18.3003c0 9.9357-16.4423 17.9902-36.7245 17.9902s-36.7241-8.0545-36.7241-17.9902v-18.3003-4.5963" stroke="#40d251"/></g></svg>