<svg width="144" height="169" viewBox="0 0 144 169" fill="none" xmlns="http://www.w3.org/2000/svg">
<path d="M72 82.7734L1 43.5222M72 82.7734V167M72 82.7734L143 43.5222M1 43.5222V127.749L72 167M1 43.5222L35.2759 23.5864M72 167L143 127.749V43.5222M143 43.5222L108.724 23.5864" stroke="black" stroke-width="2"/>
<path d="M108.724 18.9901C108.724 9.05446 92.2817 1 71.9995 1C51.7173 1 35.2754 9.05446 35.2754 18.9901M108.724 18.9901C108.724 28.9258 92.2817 36.9803 71.9995 36.9803C51.7173 36.9803 35.2754 28.9258 35.2754 18.9901M108.724 18.9901V23.5864V41.8867C108.724 51.8224 92.2817 59.8769 71.9995 59.8769C51.7173 59.8769 35.2754 51.8224 35.2754 41.8867V23.5864V18.9901" stroke="#40D251" stroke-width="2"/>
</svg>
