<svg fill="none" height="168" viewBox="0 0 212 168" width="212" xmlns="http://www.w3.org/2000/svg"><g stroke-width="2"><path d="m92.5304 135.725v30.072m0 0h-28.9043m28.9043 0h28.9046m-63.8307-145.5506h-37.3347v96.2316h37.3347m0-96.2316h107.1867v42.7536m-107.1867-42.7536v96.2316m0 0h98.3957m12.073-53.478 5.366 8.1039h10.622 10.171l5.366-8.1039m-27.5 97.247h23.475m-39.573-24.522v31.275h55v-104h-26.939m-28.061 72.725h-155v-134.725h183.061v62m-28.061 72.725v-19.247m0 0v-53.478h8.791m0 0h19.27" stroke="#000"/><path d="m57.6055 21.25v94.25" stroke="#40d251"/></g></svg>