<svg width="212" height="168" viewBox="0 0 212 168" fill="none" xmlns="http://www.w3.org/2000/svg">
<path d="M92.5304 135.725V165.797M92.5304 165.797H63.6261M92.5304 165.797H121.435M57.6043 20.2464H20.2696V116.478H57.6043M57.6043 20.2464H164.791V63M57.6043 20.2464V116.478M57.6043 116.478H156M168.073 63L173.439 71.1039H184.061H194.232L199.598 63M172.098 160.247H195.573M156 135.725V158C156 162.971 160.029 167 165 167H202C206.971 167 211 162.971 211 158V72C211 67.0294 206.971 63 202 63H184.061M156 135.725H1V1H184.061V63M156 135.725V116.478M156 116.478V71.7913C156 66.936 159.936 63 164.791 63V63M164.791 63H184.061" stroke="black" stroke-width="2"/>
<path d="M57.6055 21.25V115.5" stroke="#40D251" stroke-width="2"/>
</svg>
