<svg fill="none" height="36" viewBox="0 0 256 36" width="256" xmlns="http://www.w3.org/2000/svg"><path clip-rule="evenodd" d="m1.74121 5.46111 3.1347-3.13469 12.53879 12.53878 3.1347 3.1347-3.1347 3.1347-12.53879 12.5388-3.1347-3.1347 12.53879-12.5388zm20.37689 10.97139-3.1347-3.1347 10.9714-10.97138 3.1347 3.13469zm7.8367 17.2409-10.9714-10.9715 3.1347-3.1347 10.9714 10.9715zm144.3682 0-.082-.0003c6.386-.0345 10.009-3.68 10.009-8.5331 0-4.5279-2.09-6.6177-8.708-9.0558-6.095-2.2639-7.314-3.6571-7.314-6.26935 0-2.26394 1.742-4.35374 5.921-4.35374 2.767-.09993 5.46.90222 7.489 2.78639l2.089-2.61224c-2.438-2.0898-5.05-3.30884-9.23-3.30884-5.572 0-9.404 2.96054-9.404 7.83678 0 4.3537 2.09 6.4435 8.708 8.7074 5.573 2.0898 7.314 3.6572 7.314 6.4436 0 3.3088-2.612 5.2245-6.618 5.2245-1.51-.0531-2.994-.4034-4.369-1.031-1.375-.6275-2.612-1.5199-3.641-2.6262l-2.264 2.6123c2.248 2.4213 6.042 4.1556 10.018 4.1793l-.092.0003zm20.725-.5225h-3.309v-30.30203h3.309zm6.966-15.151c0 8.8816 4.876 15.6735 12.19 15.6735l-.174-.1742c6.443 0 11.32-4.1796 11.32-12.5388v-2.9605h-8.708v3.483h5.399c0 5.9211-2.787 9.0558-7.837 9.0558s-9.056-5.2245-9.056-12.5388 3.832-12.53879 9.056-12.53879c3.309 0 5.05 1.0449 6.966 3.83129l2.961-2.08979c-2.439-3.30885-5.573-4.87619-9.753-4.87619-7.314 0-12.364 6.61768-12.364 15.67348zm35.352-5.747 13.235 20.898h.174 2.961v-30.30203h-3.135v24.72923l-2.264-3.8313-13.061-21.07208h-3.309v30.65038h3.135v-24.7293zm-183.3797-9.40403v30.30203h18.9823v-2.9605h-15.6734v-11.6681h8.7075v-3.1347h-8.7075v-9.57819h14.9768v-2.96054zm51.8967 15.15103c0 8.8816 4.702 15.6735 12.19 15.6735l.175-.1742c6.443 0 11.145-4.1796 11.145-12.5388v-2.9605h-8.707v3.483h5.572c0 5.9211-2.786 9.0558-8.01 9.0558-5.051 0-8.882-5.2245-8.882-12.5388s3.831-12.53879 9.056-12.53879c3.134 0 5.05 1.0449 6.966 3.83129l2.438-2.08979c-2.264-3.30885-5.399-4.87619-9.753-4.87619-7.14 0-12.19 6.61768-12.19 15.67348zm31.869 0c0-7.6626 3.832-12.53879 9.056-12.53879 5.399 0 9.404 4.87619 9.404 12.53879s-4.005 12.5388-9.23 12.5388c-5.224 0-9.23-4.8762-9.23-12.5388zm-3.309 0c0 9.2299 4.877 15.6735 12.365 15.6735h.174c7.489 0 12.713-6.6177 12.713-15.6735 0-9.22995-5.05-15.67348-12.713-15.67348-7.488 0-12.539 6.61768-12.539 15.67348zm-55.0308 15.151h3.3088v-27.34149h8.7075c4.0055 0 6.0952 1.7415 6.0952 5.74689 0 3.8313-2.0897 5.747-6.6176 5.747h-2.264l5.747 11.3197 2.2639 4.5279h3.831l-6.6174-13.2354c4.3537-.8707 7.1404-3.8313 7.1404-8.3592 0-6.09519-4.1799-8.70743-9.4043-8.70743h-12.1905z" fill="#111" fill-rule="evenodd"/></svg>