<svg width="96" height="96" viewBox="0 0 96 96" fill="none" xmlns="http://www.w3.org/2000/svg">
<path fill-rule="evenodd" clip-rule="evenodd" d="M46.9031 11.4921L46.672 7.11407C46.0906 7.12249 45.4679 7.15464 44.8678 7.19061C44.9826 8.64997 45.0599 10.1093 45.0978 11.5691L44.9321 11.5781C44.1987 11.6182 43.4123 11.6611 42.6403 11.6839L42.1025 1.08413C42.7458 1.01889 43.415 0.985621 44.0953 0.951795C44.2372 0.944744 44.3795 0.937668 44.5222 0.930274C44.6213 2.26716 44.704 3.6381 44.7805 4.98264C45.0169 4.97044 45.2394 4.95593 45.4567 4.94176C45.8123 4.91858 46.1539 4.89631 46.5193 4.88657C46.5044 4.46026 46.4911 4.02381 46.4776 3.58326V3.58319V3.58312V3.58305V3.58298V3.58291V3.58284V3.58277V3.5827V3.58263V3.58256V3.58249V3.58241V3.58233V3.58225V3.58215V3.58201C46.4496 2.6695 46.4211 1.7394 46.378 0.845307C46.7811 0.806842 47.1909 0.799379 47.6008 0.791916C48.0106 0.784453 48.4205 0.776989 48.8237 0.738525L49.4001 11.3766L46.9031 11.4921ZM37.0713 2.15912C37.7526 1.94709 38.3918 1.75534 39.145 1.5835C40.0674 4.96263 40.9886 8.34215 41.8337 11.7607L41.8735 11.8985L39.3658 12.5694C38.0075 10.3993 36.5864 8.06506 35.3085 5.89267L35.4199 6.34544L37.2252 13.1049C36.8675 13.2073 36.5314 13.3046 36.2051 13.3991L36.205 13.3991L36.2041 13.3993L36.2027 13.3998L36.2013 13.4002L36.2 13.4005L36.1963 13.4016L36.1957 13.4018L36.1934 13.4024C35.8389 13.505 35.4958 13.6044 35.1485 13.7035C34.9602 13.0051 34.7703 12.3058 34.5803 11.6055L34.5802 11.6051L34.58 11.6047L34.5799 11.6043L34.5799 11.6042L34.5799 11.6041L34.5799 11.6041L34.5799 11.604L34.5798 11.604L34.5798 11.604L34.5798 11.6039C33.8398 8.87779 33.0961 6.13802 32.4238 3.38808L34.9973 2.69686C36.3797 4.6553 37.6864 6.72588 38.838 8.79952L37.0713 2.15912ZM61.1846 8.52852C61.488 6.69751 61.7959 4.83989 61.9963 3.00384C61.5606 2.85114 61.1121 2.71102 60.6585 2.56926L60.6584 2.56922L60.6583 2.56921L60.6583 2.56919L60.6582 2.56917L60.6582 2.56915C60.3126 2.46117 59.964 2.35224 59.6157 2.23608L58.502 12.951V13.0486L61.2289 13.9496L61.3058 13.873L66.6051 4.73226L66.6955 4.53515C66.1994 4.39035 65.6768 4.21225 65.158 4.03543C64.8745 3.93885 64.5923 3.84265 64.316 3.75247C63.2023 5.94131 62.0353 8.22698 60.8822 10.3779C60.979 9.7692 61.0807 9.1556 61.1829 8.53897L61.1834 8.53565L61.1844 8.52952L61.1846 8.52852ZM53.2935 7.82615L53.2934 7.82635L53.2786 7.88125L54.6228 8.11204C54.6035 7.34526 54.6132 6.55921 54.6229 5.77319V5.77289C54.6326 4.98417 54.6423 4.19547 54.6228 3.42625C54.092 4.86715 53.6731 6.41955 53.2935 7.82615ZM56.4281 1.54436C56.5611 3.33607 56.6755 5.1374 56.7899 6.9388L56.7899 6.93903C56.906 8.767 57.0221 10.595 57.1576 12.4132C56.2651 12.3137 55.4824 12.2019 54.6197 12.058C54.6197 11.7899 54.6218 11.5559 54.6238 11.3274C54.6274 10.9294 54.6308 10.5479 54.6228 10.0318C54.0564 9.96576 53.5186 9.87004 52.9601 9.77064L52.9601 9.77063L52.7022 9.72487C52.6338 9.88608 52.5869 10.0427 52.5396 10.2002L52.5396 10.2002C52.4883 10.3713 52.4367 10.5434 52.357 10.7234L52.0118 11.6837C51.5197 11.6604 51.0279 11.5655 50.5273 11.469C50.2068 11.4071 49.8827 11.3446 49.5527 11.2998L49.7962 10.6205L53.4711 1.12183L56.4281 1.54436ZM29.5058 4.54053L24.3584 7.15191L29.0442 16.4844L29.1269 16.6747L34.4621 13.9592C34.4002 13.8354 34.3399 13.7128 34.28 13.5909C34.0616 13.1469 33.8477 12.7122 33.5769 12.2602C33.1509 12.4494 32.7315 12.6644 32.3134 12.8788C31.713 13.1866 31.1152 13.4931 30.5047 13.7196L29.3519 11.453C29.8602 11.178 30.4025 10.9105 30.9355 10.6475L30.9355 10.6475L30.9355 10.6475L30.9356 10.6475L30.9356 10.6475L30.9356 10.6475L30.9356 10.6474L30.9357 10.6474L30.9357 10.6474L30.9357 10.6474L30.9358 10.6474L30.9358 10.6474L30.9359 10.6473C31.3691 10.4336 31.7962 10.2229 32.1941 10.0136C31.9066 9.4548 31.5706 8.83171 31.2724 8.30431L28.4689 9.68674C28.0843 9.07245 27.777 8.41913 27.47 7.76657L30.3887 6.23029C30.3192 6.09462 30.2507 5.95909 30.1821 5.82351L30.1821 5.82344C29.9671 5.39829 29.7518 4.9726 29.5058 4.54053ZM70.6375 6.92151C70.138 9.22594 69.6007 11.569 68.9477 13.7965C70.0611 11.8377 71.2522 9.84023 72.4428 7.88179C73.1164 8.27294 73.6921 8.60821 74.3255 8.99554L68.916 18.1922L68.7943 18.1363C68.4488 17.9061 68.0843 17.695 67.7198 17.484C67.3547 17.2725 66.9896 17.0611 66.6437 16.8304C67.2201 14.296 67.834 11.7994 68.5252 9.3798C67.8726 10.4166 67.2582 11.4823 66.6437 12.548C66.0292 13.6138 65.4147 14.6795 64.7622 15.7163L62.9189 14.5643L68.2956 5.46216L70.657 6.7711L70.6375 6.92151ZM22.4049 15.8402C22.8551 15.4606 23.4362 14.9707 24.0514 15.3323C24.0843 15.3616 24.1176 15.3908 24.151 15.4201L24.151 15.4202C24.4683 15.6991 24.7956 15.9868 24.9351 16.3691C25.0503 16.7151 25.0503 17.1373 24.8191 17.406L24.09 18.0975L22.3234 15.9087C22.35 15.8864 22.3772 15.8635 22.4049 15.8402ZM19.7036 12.5433C20.0776 12.2042 20.5518 11.7742 21.0944 11.9914C21.5169 12.2601 21.8235 12.644 22.016 13.1048C22.0929 13.3735 21.9781 13.6422 21.8235 13.8343L21.1323 14.449L19.635 12.6053L19.7036 12.5433ZM23.8596 13.2587C24.2052 12.7209 24.09 11.9914 23.8596 11.4529C23.4371 10.7235 22.7459 9.91704 21.9008 9.68702C21.2471 9.49451 20.518 9.64798 19.9803 9.99397C19.6575 10.2521 19.3318 10.5072 19.0056 10.7626C18.167 11.4194 17.3253 12.0786 16.5234 12.7975L22.7072 20.4406L23.2836 21.0932C23.6417 20.7984 24.0171 20.5194 24.3918 20.2409L24.3918 20.2409C25.5525 19.3783 26.7065 18.5208 27.3161 17.2142C27.7 16.1387 27.1622 15.1402 26.6249 14.3338C26.0098 13.6808 25.3569 13.0279 24.3974 13.1431C24.3081 13.1431 24.2188 13.1762 24.1334 13.2079C24.0349 13.2444 23.9416 13.279 23.8596 13.2587ZM17.7765 22.1807L17.7765 22.1808L17.7766 22.1809L17.7766 22.1811L17.7767 22.1812L17.7774 22.1831C17.9246 22.551 18.0711 22.917 18.2138 23.2823C18.9525 23.719 19.3191 23.0637 19.2893 22.6297C19.1444 21.7325 18.3549 21.1097 17.6057 20.5188C17.361 20.3258 17.1205 20.1361 16.9083 19.9414C17.1846 20.7019 17.482 21.445 17.7764 22.1805L17.7765 22.1807ZM13.7205 18.3665L13.7126 18.3823C13.5994 18.6072 13.4916 18.8215 13.6046 19.0963C14.0482 19.8721 14.771 20.468 15.4853 21.0569C15.7613 21.2845 16.036 21.5109 16.2929 21.7464C16.0289 20.9279 15.6922 20.1274 15.3579 19.3326C15.2061 18.9715 15.0547 18.6115 14.9108 18.2516C14.6039 17.983 13.9888 17.983 13.7205 18.3665ZM18.8457 18.2326L18.8457 18.2326C19.2965 18.6625 19.7462 19.0913 20.2113 19.4806C21.209 20.4022 22.0545 21.6312 21.4781 23.0522C21.0177 24.0894 20.134 25.1263 19.0971 25.664L19.3654 26.4318L18.3294 26.8543L18.29 26.7008C18.0612 27.0568 17.8405 27.4322 17.6175 27.8116L17.6175 27.8116C17.4271 28.1355 17.235 28.4623 17.0346 28.7825L13.0668 28.1219L13.0282 28.1602L13.7971 29.3122L13.8175 29.3247C14.5019 29.7431 15.1863 30.1614 15.909 30.5802C15.6734 30.9641 15.4547 31.3407 15.2399 31.7106C15.0397 32.0554 14.8429 32.3942 14.6391 32.7277L14.5262 32.6538L5.62996 27.4406L5.50098 27.3538C5.90208 26.6101 6.30739 25.9327 6.72993 25.2415C7.37542 25.6104 8.01376 25.9751 8.64985 26.3384L8.65526 26.3415L8.67178 26.351L8.6919 26.3624L8.71745 26.377L8.71845 26.3776C9.40013 26.767 10.0794 27.1551 10.7624 27.5455V27.4307C9.81979 26.3193 8.96603 25.1196 8.12272 23.9346C8.00418 23.7681 7.88585 23.6018 7.76751 23.4361C7.9984 22.9482 8.2981 22.4602 8.5977 21.9723L8.59774 21.9722L8.59786 21.9721L8.59787 21.972L8.59796 21.9719C8.74624 21.7304 8.89449 21.489 9.03435 21.2477L11.9531 25.5488L12.1069 25.664L18.2134 26.547C18.1822 26.4846 18.1564 26.4054 18.1293 26.3224L18.1293 26.3224C18.0566 26.0992 17.9747 25.8479 17.753 25.8175C16.2964 25.3858 15.1053 24.2346 13.9263 23.0951C13.4266 22.6121 12.929 22.1312 12.4143 21.7081C11.4153 20.863 10.9549 19.5958 11.3774 18.3665C11.8 17.2914 12.8617 16.1455 13.936 15.6847C13.8564 15.4447 13.7584 15.1791 13.6432 14.91L14.68 14.5261L15.1026 15.5633C16.538 16.0322 17.6952 17.1356 18.8457 18.2326ZM14.0636 34.5322L11.838 33.7671L10.9922 36.0715C11.7221 36.3402 12.4814 36.5771 13.2587 36.8014C13.4012 36.3493 13.5779 35.8685 13.7526 35.3934C13.8598 35.1015 13.9663 34.8118 14.0636 34.5322ZM6.15366 35.4954C6.09331 36.0706 5.95753 36.6921 5.82756 37.2871C5.79269 37.4468 5.75823 37.6045 5.72577 37.7589C5.551 37.7451 5.36597 37.7013 5.17826 37.6569L5.17823 37.6568C4.71356 37.5468 4.23246 37.4329 3.85 37.7612C3.58056 37.9916 3.50401 38.3754 3.54267 38.7214C3.61921 38.9518 3.81058 39.144 4.04137 39.2209L9.64953 40.3729C9.70375 40.3729 9.75797 40.3761 9.81156 40.3792H9.81162H9.81169H9.81175H9.81181H9.81187H9.81193H9.81199C10.0238 40.3914 10.2257 40.4031 10.3786 40.2191C10.6473 39.9121 10.7246 39.4509 10.5321 39.067C10.1826 38.6294 9.62758 38.5351 9.06502 38.4395L9.0649 38.4395L9.0648 38.4395L9.06471 38.4394C8.88694 38.4092 8.70843 38.3789 8.5354 38.3376L8.6089 37.932L8.60892 37.9319C8.72443 37.2937 8.83056 36.7073 8.95794 36.071C10.3013 36.2249 11.8384 36.5326 12.4913 37.9537C12.8744 39.2592 12.5679 40.7185 11.8766 41.794C11.1472 42.8308 9.80224 43.0226 8.6506 42.7543L3.38881 41.6022C2.65894 41.4097 1.92869 40.7568 1.66078 40.0273C1.31479 38.4528 1.62212 36.7626 2.81242 35.6875C3.73403 35.0346 5.15473 35.1881 6.15366 35.4954ZM11.4287 46.9594L11.6844 44.4517L9.25634 44.196C9.22069 44.5718 9.18712 44.9647 9.15338 45.3597L9.15337 45.3598C9.11466 45.8129 9.07574 46.2686 9.0332 46.7037C9.80096 46.7806 10.6139 46.8637 11.4287 46.9594ZM2.7748 47.8624C3.38908 47.9393 4.08029 47.9393 4.77189 47.9393C4.79735 47.3543 4.80808 46.7336 4.81875 46.1164L4.81875 46.1163L4.81875 46.1163L4.81875 46.1162L4.81875 46.1162L4.81875 46.1161L4.81875 46.116C4.82653 45.6661 4.83428 45.2181 4.84767 44.7871L6.80649 44.8285V47.9007L6.81261 47.9661L11.3775 48.0928L11.3388 50.589H11.108L0.738281 50.3968C0.738281 48.3615 0.742491 46.3368 0.758566 44.3879L2.7748 44.4825V47.8624ZM15.1409 64.4923C13.4121 61.1507 12.2991 57.5411 11.6462 53.7383C11.0511 53.7958 10.4658 53.8918 9.88063 53.9877C9.29448 54.0838 8.70844 54.1799 8.11281 54.2374C7.88164 54.1991 7.92029 54.4678 7.95895 54.6216C8.61189 58.7697 9.84084 62.6866 11.7614 66.2969L14.9874 64.6458L15.1409 64.4923ZM5.03995 54.9673C5.69289 59.4609 7.19129 63.6086 9.03452 67.5645C7.95905 68.1792 6.8453 68.7165 5.69289 69.2546C3.50405 64.9145 2.00642 60.2681 1.23828 55.3515C2.46685 55.0825 3.69657 54.8904 4.96341 54.7751L5.03995 54.9673ZM35.2663 82.6966C32.578 81.6981 30.0435 80.3922 27.6239 78.7797C23.2454 75.9372 19.2509 71.4822 16.5235 67.1807C16.1056 67.4496 15.6701 67.7011 15.2374 67.951L15.2373 67.951L15.2372 67.9511L15.2371 67.9512C14.5576 68.3436 13.885 68.7321 13.2979 69.1778C17.4076 76.2059 24.6279 82.6966 32.0019 85.6153C32.8857 85.9996 33.7686 86.3835 34.6906 86.5756L35.3436 82.7732H35.3049C35.2663 82.7732 35.2284 82.7349 35.2663 82.6966ZM10.7632 70.6367C15.948 79.5467 24.9736 86.5756 34.2682 89.5329C34.3063 90.1827 34.2778 90.842 34.249 91.5062C34.22 92.1766 34.1907 92.852 34.2296 93.5275C23.7056 90.378 13.298 82.7349 7.53711 72.5573C7.97779 72.3056 8.41211 72.0345 8.84786 71.7625L8.84799 71.7624C9.47564 71.3706 10.1063 70.9769 10.7632 70.6367ZM46.8092 39.106C46.8487 38.3949 46.8865 37.714 47.8628 37.6081C49.553 37.8385 51.051 38.568 52.3182 39.7969C52.3933 39.8723 52.4315 39.9477 52.4698 40.0231L52.4721 40.0277L52.2417 40.1425C50.1673 40.3347 48.2081 40.5264 46.2887 41.0259C46.181 41.0797 46.0734 41.1377 45.9653 41.196C45.6103 41.3874 45.2501 41.5816 44.8672 41.6405C44.7877 41.0837 45.2389 40.9481 45.6777 40.8161C45.8744 40.757 46.0686 40.6986 46.2114 40.6033C46.7442 40.277 46.7772 39.6816 46.8092 39.106ZM94.7192 41.0649C93.6433 34.0747 91.1471 27.6992 87.2685 21.9C85.1993 21.325 83.0154 21.0178 80.8309 20.7105L80.8145 20.7082C75.4754 20.1704 69.5618 20.0943 64.4152 21.2076C61.7656 21.861 59.3459 23.0513 57.1181 24.7797C55.736 26.0473 54.9288 27.6215 54.4684 29.2729L54.1993 29.4651C51.9715 30.2715 49.783 31.27 47.709 32.499C47.5148 32.6341 47.3095 32.7637 47.102 32.8946C46.3656 33.3592 45.602 33.8411 45.212 34.6499C45.125 34.8098 45.0709 34.9917 45.0165 35.1747C44.927 35.4753 44.8366 35.7791 44.5978 35.9937C42.3754 36.6069 40.2684 37.4493 38.161 38.2919L38.1453 38.2981C37.8606 38.4179 37.5758 38.5374 37.291 38.6569C32.7341 40.5687 28.1732 42.4821 24.0891 45.5188C23.5131 45.9409 23.3213 46.6325 23.1679 47.2472C23.1539 47.4752 23.1289 47.7132 23.1034 47.9553C22.9871 49.0587 22.8618 50.2479 23.7431 50.9723C24.7034 51.2027 25.7023 50.8954 26.5091 50.3959C26.9338 50.1835 27.2118 49.8238 27.4953 49.4571C27.6216 49.2937 27.7489 49.129 27.8908 48.9752C28.0833 49.7047 28.0833 50.7415 27.8142 51.4327C27.1761 52.4324 26.1764 53.0303 25.1928 53.6186C24.8154 53.8443 24.4404 54.0685 24.0891 54.3135C23.862 54.8063 23.8214 55.4115 23.7832 55.9815L23.7818 56.0033C23.9356 58.1156 24.1656 60.2275 25.2798 61.9559C25.883 62.6551 26.7234 62.9341 27.5399 63.2051C27.7102 63.2616 27.8795 63.3178 28.0454 63.3774C29.1201 63.6847 30.2725 63.6465 31.4241 63.6078C32.293 63.5681 33.0906 63.3661 33.8901 63.1637C34.6461 62.9723 35.4039 62.7805 36.2255 62.7248C37.2244 62.6093 37.9922 63.4161 38.4147 64.2221C38.8365 65.4128 38.7213 67.026 38.0301 68.1018C37.7231 68.2932 37.3771 68.4467 36.9933 68.3701C35.445 68.0764 34.1562 67.1517 32.8692 66.2282C32.3048 65.8233 31.7409 65.4187 31.1555 65.0675C31.0105 64.9863 30.8647 64.8999 30.7176 64.8127C29.8904 64.3221 29.0235 63.808 28.0454 64.069C27.6994 64.2607 27.5076 64.6063 27.353 64.9137C27.1371 67.013 27.69 68.9628 28.2347 70.8836C28.3677 71.3528 28.5003 71.8203 28.621 72.2878C28.7093 72.5323 28.7928 72.7793 28.8763 73.0266C29.2653 74.1773 29.6563 75.3341 30.5416 76.2823C31.0789 76.7814 31.8857 76.9357 32.6148 76.7435C33.7928 76.4201 34.8322 75.7494 35.8661 75.0822C36.5513 74.64 37.2342 74.1993 37.9535 73.8623C38.1305 73.7917 38.3001 73.6958 38.4714 73.5989C38.8581 73.3801 39.2531 73.1567 39.7589 73.2098C40.0276 73.3636 40.1041 73.6327 40.1428 73.9014C40.1428 75.2842 40.1428 76.7439 39.7968 78.0877C39.7471 78.8707 39.6685 79.6682 39.589 80.4739C39.4852 81.5255 39.3801 82.5911 39.3363 83.6568C39.0677 87.4589 39.3742 91.2226 39.912 94.8326C46.2496 96.0619 53.7382 95.7159 59.806 94.0641C58.8472 91.0305 58.0393 87.9193 57.3102 84.7319C57.2251 84.2488 57.1329 83.7658 57.0407 83.2822C56.7589 81.8047 56.4761 80.3222 56.3893 78.8176C58.347 83.6951 60.3828 88.5722 63.4171 92.9893C69.2162 90.9536 74.708 87.881 79.5469 83.503C77.455 81.0744 75.6532 78.5365 73.8241 75.96L73.6712 75.7446C73.3808 75.2963 73.0861 74.848 72.7909 74.3988C71.291 72.1163 69.7763 69.8114 68.7175 67.3723C72.7117 72.1351 77.3971 77.0126 82.1977 80.9302C86.5769 76.3214 89.8022 71.1748 91.9918 65.6057C88.6888 62.956 85.3862 60.3829 81.9677 58.0785C81.6101 57.8318 81.2487 57.593 80.8896 57.3558C80.1301 56.8541 79.3814 56.3595 78.7034 55.8119C83.4559 57.4941 87.9653 59.7326 92.4626 61.9652C92.6896 62.0779 92.9165 62.1905 93.1434 62.3031C94.8722 56.9261 95.5631 50.9734 95.1405 44.8666C89.8401 41.9092 84.3487 39.413 78.5874 37.5694L78.6272 37.5311C84.1565 38.2989 89.5339 39.49 94.7192 41.0649Z" fill="#111111"/>
</svg>
