<svg fill="none" height="96" viewBox="0 0 96 96" width="96" xmlns="http://www.w3.org/2000/svg"><path clip-rule="evenodd" d="m46.9031 11.4921-.2311-4.37803c-.5814.00842-1.2041.04057-1.8042.07654.1148 1.45936.1921 2.91869.23 4.37849l-.1657.009c-.7334.0401-1.5198.083-2.2918.1058l-.5378-10.59977c.6433-.06524 1.3125-.098509 1.9928-.132335.1419-.007051.2842-.014127.4269-.021521.0991 1.336886.1818 2.707826.2583 4.052366.2364-.0122.4589-.02671.6762-.04088.3556-.02318.6972-.04545 1.0626-.05519-.0149-.42631-.0282-.86276-.0417-1.30331v-.00007-.00007-.00007-.00007-.00007-.00007-.00007-.00007-.00007-.00007-.00007-.00008-.00008-.00008-.0001-.00014c-.028-.91251-.0565-1.84261-.0996-2.736703.4031-.038465.8129-.045928 1.2228-.053391.4098-.007463.8197-.014927 1.2229-.053391l.5764 10.638075zm-9.8318-9.33298c.6813-.21203 1.3205-.40378 2.0737-.57562.9224 3.37913 1.8436 6.75865 2.6887 10.1772l.0398.1378-2.5077.6709c-1.3583-2.1701-2.7794-4.50434-4.0573-6.67673l.1114.45277 1.8053 6.75946c-.3577.1024-.6938.1997-1.0201.2942h-.0001l-.0009.0002-.0014.0005-.0014.0004-.0013.0003-.0037.0011-.0006.0002-.0023.0006c-.3545.1026-.6976.202-1.0449.3011-.1883-.6984-.3782-1.3977-.5682-2.098l-.0001-.0004-.0002-.0004-.0001-.0004v-.0001-.0001-.0001h-.0001v-.0001c-.74-2.72611-1.4837-5.46588-2.156-8.21582l2.5735-.69122c1.3824 1.95844 2.6891 4.02902 3.8407 6.10266zm24.1133 6.3694c.3034-1.83101.6113-3.68863.8117-5.52468-.4357-.1527-.8842-.29282-1.3378-.43458l-.0001-.00004-.0001-.00001v-.00002l-.0001-.00002v-.00002c-.3456-.10798-.6942-.21691-1.0425-.33307l-1.1137 10.71492v.0976l2.7269.901.0769-.0766 5.2993-9.14074.0904-.19711c-.4961-.1448-1.0187-.3229-1.5375-.49972-.2835-.09658-.5657-.19278-.842-.28296-1.1137 2.18884-2.2807 4.47451-3.4338 6.62543.0968-.6087.1985-1.2223.3007-1.83893l.0005-.00332.001-.00613zm-7.8911-.70237-.0001.0002-.0148.0549 1.3442.23079c-.0193-.76678-.0096-1.55283.0001-2.33885v-.0003c.0097-.78872.0194-1.57742-.0001-2.34664-.5308 1.4409-.9497 2.9933-1.3293 4.3999zm3.1346-6.28179c.133 1.79171.2474 3.59304.3618 5.39444v.00023c.1161 1.82797.2322 3.65597.3677 5.47417-.8925-.0995-1.6752-.2113-2.5379-.3552 0-.2681.0021-.5021.0041-.7306.0036-.398.007-.7795-.001-1.2956-.5664-.06604-1.1042-.16176-1.6627-.26116v-.00001l-.2579-.04576c-.0684.16121-.1153.31783-.1626.47533-.0513.1711-.1029.3432-.1826.5232l-.3452.9603c-.4921-.0233-.9839-.1182-1.4845-.2147-.3205-.0619-.6446-.1244-.9746-.1692l.2435-.6793 3.6749-9.49867zm-26.9223 2.99617-5.1474 2.61138 4.6858 9.33249.0827.1903 5.3352-2.7155c-.0619-.1238-.1222-.2464-.1821-.3683-.2184-.444-.4323-.8787-.7031-1.3307-.426.1892-.8454.4042-1.2635.6186-.6004.3078-1.1982.6143-1.8087.8408l-1.1528-2.2666c.5083-.275 1.0506-.5425 1.5836-.8055h.0001v-.0001h.0001.0001l.0001-.0001c.4332-.2137.8603-.4244 1.2582-.6337-.2875-.5588-.6235-1.18189-.9217-1.70929l-2.8035 1.38243c-.3846-.61429-.6919-1.26761-.9989-1.92017l2.9187-1.53628c-.0695-.13567-.138-.2712-.2066-.40678v-.00007c-.215-.42515-.4303-.85084-.6763-1.28291zm41.1317 2.38098c-.4995 2.30443-1.0368 4.64749-1.6898 6.87499 1.1134-1.9588 2.3045-3.95627 3.4951-5.91471.6736.39115 1.2493.72642 1.8827 1.11375l-5.4095 9.19666-.1217-.0559c-.3455-.2302-.71-.4413-1.0745-.6523-.3651-.2115-.7302-.4229-1.0761-.6536.5764-2.5344 1.1903-5.031 1.8815-7.4506-.6526 1.0368-1.267 2.1025-1.8815 3.1682-.6145 1.0658-1.229 2.1315-1.8815 3.1683l-1.8433-1.152 5.3767-9.10214 2.3614 1.30894zm-48.2326 8.91869c.4502-.3796 1.0313-.8695 1.6465-.5079.0329.0293.0662.0585.0996.0878v.0001c.3173.2789.6446.5666.7841.9489.1152.346.1152.7682-.116 1.0369l-.7291.6915-1.7666-2.1888c.0266-.0223.0538-.0452.0815-.0685zm-2.7013-3.2969c.374-.3391.8482-.7691 1.3908-.5519.4225.2687.7291.6526.9216 1.1134.0769.2687-.0379.5374-.1925.7295l-.6912.6147-1.4973-1.8437zm4.156.7154c.3456-.5378.2304-1.2673 0-1.8058-.4225-.7294-1.1137-1.53586-1.9588-1.76588-.6537-.19251-1.3828-.03904-1.9205.30695-.3228.25813-.6485.51323-.9747.76863-.8386.6568-1.6803 1.316-2.4822 2.0349l6.1838 7.6431.5764.6526c.3581-.2948.7335-.5738 1.1082-.8523 1.1607-.8626 2.3147-1.7201 2.9243-3.0267.3839-1.0755-.1539-2.074-.6912-2.8804-.6151-.653-1.268-1.3059-2.2275-1.1907-.0893 0-.1786.0331-.264.0648-.0985.0365-.1918.0711-.2738.0508zm-6.0831 8.922v.0001l.0001.0001v.0002l.0001.0001.0007.0019c.1472.3679.2937.7339.4364 1.0992.7387.4367 1.1053-.2186 1.0755-.6526-.1449-.8972-.9344-1.52-1.6836-2.1109-.2447-.193-.4852-.3827-.6974-.5774.2763.7605.5737 1.5036.8681 2.2391zm-4.056-3.8142-.0079.0158c-.1132.2249-.221.4392-.108.714.4436.7758 1.1664 1.3717 1.8807 1.9606.276.2276.5507.454.8076.6895-.264-.8185-.6007-1.619-.935-2.4138-.1518-.3611-.3032-.7211-.4471-1.081-.3069-.2686-.922-.2686-1.1903.1149zm5.1252-.1339c.4508.4299.9005.8587 1.3656 1.248.9977.9216 1.8432 2.1506 1.2668 3.5716-.4604 1.0372-1.3441 2.0741-2.381 2.6118l.2683.7678-1.036.4225-.0394-.1535c-.2288.356-.4495.7314-.6725 1.1108-.1904.3239-.3825.6507-.5829.9709l-3.9678-.6606-.0386.0383.7689 1.152.0204.0125c.6844.4184 1.3688.8367 2.0915 1.2555-.2356.3839-.4543.7605-.6691 1.1304-.2002.3448-.397.6836-.6008 1.0171l-.1129-.0739-8.89624-5.2132-.12898-.0868c.4011-.7437.80641-1.4211 1.22895-2.1123.64549.3689 1.28383.7336 1.91992 1.0969l.00541.0031.01652.0095.02012.0114.02555.0146.001.0006c.68168.3894 1.36095.7775 2.04395 1.1679v-.1148c-.94261-1.1114-1.79637-2.3111-2.63968-3.4961-.11854-.1665-.23687-.3328-.35521-.4985.23089-.4879.53059-.9759.83019-1.4638l.00004-.0001.00012-.0001.00001-.0001.00009-.0001c.14828-.2415.29653-.4829.43639-.7242l2.91875 4.3011.1538.1152 6.1065.883c-.0312-.0624-.057-.1416-.0841-.2246-.0727-.2232-.1546-.4745-.3763-.5049-1.4566-.4317-2.6477-1.5829-3.8267-2.7224-.4997-.483-.9973-.9639-1.512-1.387-.999-.8451-1.4594-2.1123-1.0369-3.3416.4226-1.0751 1.4843-2.221 2.5586-2.6818-.0796-.24-.1776-.5056-.2928-.7747l1.0368-.3839.4226 1.0372c1.4354.4689 2.5926 1.5723 3.7431 2.6693zm-4.7821 16.2996-2.2256-.7651-.8458 2.3044c.7299.2687 1.4892.5056 2.2665.7299.1425-.4521.3192-.9329.4939-1.408.1072-.2919.2137-.5816.311-.8612zm-7.90994.9632c-.06035.5752-.19613 1.1967-.3261 1.7917-.03487.1597-.06933.3174-.10179.4718-.17477-.0138-.3598-.0576-.54751-.102l-.00003-.0001c-.46467-.11-.94577-.2239-1.32823.1044-.26944.2304-.34599.6142-.30733.9602.07654.2304.26791.4226.4987.4995l5.60816 1.152c.05422 0 .10844.0032.16203.0063h.00006.00007.00006.00006.00006.00006.00006c.21181.0122.41371.0239.56661-.1601.2687-.307.346-.7682.1535-1.1521-.3495-.4376-.90452-.5319-1.46708-.6275h-.00012-.0001l-.00009-.0001c-.17777-.0302-.35628-.0605-.52931-.1018l.0735-.4056.00002-.0001c.11551-.6382.22164-1.2246.34902-1.8609 1.34336.1539 2.88046.4616 3.53336 1.8827.3831 1.3055.0766 2.7648-.6147 3.8403-.7294 1.0368-2.07436 1.2286-3.226.9603l-5.26179-1.1521c-.72987-.1925-1.46012-.8454-1.72803-1.5749-.34599-1.5745-.03866-3.2647 1.15164-4.3398.92161-.6529 2.34231-.4994 3.34124-.1921zm5.27504 11.464.2557-2.5077-2.42806-.2557c-.03565.3758-.06922.7687-.10296 1.1637l-.00001.0001c-.03871.4531-.07763.9088-.12017 1.3439.76776.0769 1.5807.16 2.3955.2557zm-8.6539.903c.61428.0769 1.30549.0769 1.99709.0769.02546-.585.03619-1.2057.04686-1.8229v-.0001-.0001-.0001-.0001c.00778-.4499.01553-.8979.02892-1.3289l1.95882.0414v3.0722l.00612.0654 4.56489.1267-.0387 2.4962h-.2308l-10.369719-.1922c0-2.0353.00421-4.06.020285-6.0089l2.016234.0946zm12.3661 16.6299c-1.7288-3.3416-2.8418-6.9512-3.4947-10.754-.5951.0575-1.1804.1535-1.76557.2494-.58615.0961-1.17219.1922-1.76782.2497-.23117-.0383-.19252.2304-.15386.3842.65294 4.1481 1.88189 8.065 3.80245 11.6753l3.226-1.6511zm-10.10095-9.525c.65294 4.4936 2.15134 8.6413 3.99457 12.5972-1.07547.6147-2.18922 1.152-3.34163 1.6901-2.18884-4.3401-3.68647-8.9865-4.45461-13.9031 1.22857-.269 2.45829-.4611 3.72513-.5764zm30.22635 27.7293c-2.6883-.9985-5.2228-2.3044-7.6424-3.9169-4.3785-2.8425-8.373-7.2975-11.1004-11.599-.4179.2689-.8534.5204-1.2861.7703h-.0001l-.0001.0001-.0001.0001c-.6795.3924-1.3521.7809-1.9392 1.2266 4.1097 7.0281 11.33 13.5188 18.704 16.4375.8838.3843 1.7667.7682 2.6887.9603l.653-3.8024h-.0387c-.0386 0-.0765-.0383-.0386-.0766zm-24.5031-12.0599c5.1848 8.91 14.2104 15.9389 23.505 18.8962.0381.6498.0096 1.3091-.0192 1.9733-.029.6704-.0583 1.3458-.0194 2.0213-10.524-3.1495-20.9316-10.7926-26.69249-20.9702.44068-.2517.875-.5228 1.31075-.7948l.00013-.0001c.62765-.3918 1.25831-.7855 1.91521-1.1257zm36.046-31.5307c.0395-.7111.0773-1.392 1.0536-1.4979 1.6902.2304 3.1882.9599 4.4554 2.1888.0751.0754.1133.1508.1516.2262l.0023.0046-.2304.1148c-2.0744.1922-4.0336.3839-5.953.8834-.1077.0538-.2153.1118-.3234.1701-.355.1914-.7152.3856-1.0981.4445-.0795-.5568.3717-.6924.8105-.8244.1967-.0591.3909-.1175.5337-.2128.5328-.3263.5658-.9217.5978-1.4973zm47.91 1.9589c-1.0759-6.9902-3.5721-13.3657-7.4507-19.1649-2.0692-.575-4.2531-.8822-6.4376-1.1895l-.0164-.0023c-5.3391-.5378-11.2527-.6139-16.3993.4994-2.6496.6534-5.0693 1.8437-7.2971 3.5721-1.3821 1.2676-2.1893 2.8418-2.6497 4.4932l-.2691.1922c-2.2278.8064-4.4163 1.8049-6.4903 3.0339-.1942.1351-.3995.2647-.607.3956-.7364.4646-1.5.9465-1.89 1.7553-.087.1599-.1411.3418-.1955.5248-.0895.3006-.1799.6044-.4187.819-2.2224.6132-4.3294 1.4556-6.4368 2.2982l-.0157.0062c-.2847.1198-.5695.2393-.8543.3588-4.5569 1.9118-9.1178 3.8252-13.2019 6.8619-.576.4221-.7678 1.1137-.9212 1.7284-.014.228-.039.466-.0645.7081-.1163 1.1034-.2416 2.2926.6397 3.017.9603.2304 1.9592-.0769 2.766-.5764.4247-.2124.7027-.5721.9862-.9388.1263-.1634.2536-.3281.3955-.4819.1925.7295.1925 1.7663-.0766 2.4575-.6381.9997-1.6378 1.5976-2.6214 2.1859-.3774.2257-.7524.4499-1.1037.6949-.2271.4928-.2677 1.098-.3059 1.668l-.0014.0218c.1538 2.1123.3838 4.2242 1.498 5.9526.6032.6992 1.4436.9782 2.2601 1.2492.1703.0565.3396.1127.5055.1723 1.0747.3073 2.2271.2691 3.3787.2304.8689-.0397 1.6665-.2417 2.466-.4441.756-.1914 1.5138-.3832 2.3354-.4389.9989-.1155 1.7667.6913 2.1892 1.4973.4218 1.1907.3066 2.8039-.3846 3.8797-.307.1914-.653.3449-1.0368.2683-1.5483-.2937-2.8371-1.2184-4.1241-2.1419-.5644-.4049-1.1283-.8095-1.7137-1.1607-.145-.0812-.2908-.1676-.4379-.2548-.8272-.4906-1.6941-1.0047-2.6722-.7437-.346.1917-.5378.5373-.6924.8447-.2159 2.0993.337 4.0491.8817 5.9699.133.4692.2656.9367.3863 1.4042.0883.2445.1718.4915.2553.7388.389 1.1507.78 2.3075 1.6653 3.2557.5373.4991 1.3441.6534 2.0732.4612 1.178-.3234 2.2174-.9941 3.2513-1.6613.6852-.4422 1.3681-.8829 2.0874-1.2199.177-.0706.3466-.1665.5179-.2634.3867-.2188.7817-.4422 1.2875-.3891.2687.1538.3452.4229.3839.6916 0 1.3828 0 2.8425-.346 4.1863-.0497.783-.1283 1.5805-.2078 2.3862-.1038 1.0516-.2089 2.1172-.2527 3.1829-.2686 3.8021.0379 7.5658.5757 11.1758 6.3376 1.2293 13.8262.8833 19.894-.7685-.9588-3.0336-1.7667-6.1448-2.4958-9.3322-.0851-.4831-.1773-.9661-.2695-1.4497-.2818-1.4775-.5646-2.96-.6514-4.4646 1.9577 4.8775 3.9935 9.7546 7.0278 14.1717 5.7991-2.0357 11.2909-5.1083 16.1298-9.4863-2.0919-2.4286-3.8937-4.9665-5.7228-7.543l-.1529-.2154c-.2904-.4483-.5851-.8966-.8803-1.3458-1.4999-2.2825-3.0146-4.5874-4.0734-7.0265 3.9942 4.7628 8.6796 9.6403 13.4802 13.5579 4.3792-4.6088 7.6045-9.7554 9.7941-15.3245-3.303-2.6497-6.6056-5.2228-10.0241-7.5272-.3576-.2467-.719-.4855-1.0781-.7227-.7595-.5017-1.5082-.9963-2.1862-1.5439 4.7525 1.6822 9.2619 3.9207 13.7592 6.1533.227.1127.4539.2253.6808.3379 1.7288-5.377 2.4197-11.3297 1.9971-17.4365-5.3004-2.9574-10.7918-5.4536-16.5531-7.2972l.0398-.0383c5.5293.7678 10.9067 1.9589 16.092 3.5338z" fill="#111" fill-rule="evenodd"/></svg>