<svg fill="none" height="112" viewBox="0 0 112 112" width="112" xmlns="http://www.w3.org/2000/svg"><path d="m37.4302 48.2944-1.8816 9.5424-25.58083-5.152 2.01603-9.5424zm60.4576 38.864h2.6432v9.6544h-2.6432c-12.0288 0-21.5712-10.7968-31.2256-21.8176-3.7632 2.128-7.28 3.2704-10.6624 3.2704s-7.0336-1.12-10.9088-3.3824c-8.5344 8.9152-16.9344 21.952-30.8448 21.952h-2.6432v-9.7888h2.6432c10.2816 0 19.5552-15.1648 27.0816-22.1984h6.272c3.0016 2.3744 5.7792 3.6288 8.4 3.6288 2.6432 0 5.3984-1.12 8.288-3.5168h6.272c7.504 7.0336 16.6656 22.1984 27.328 22.1984zm-54.2976-44.5088-13.0592-22.7136 8.4-4.7712 13.1712 22.5792zm37.9904-22.7136-13.0368 22.7136-8.4-4.8832 13.0368-22.5792zm-5.0176 37.8784-1.8816-9.5424 25.4686-5.152 1.882 9.5424z" fill="#111"/></svg>