<svg fill="none" height="64" viewBox="0 0 64 64" width="64" xmlns="http://www.w3.org/2000/svg" xmlns:xlink="http://www.w3.org/1999/xlink"><clipPath id="a"><path d="m0 0h64v64h-64z"/></clipPath><mask id="b" height="32" maskUnits="userSpaceOnUse" width="45" x="10" y="16"><path d="m53.674 47.3139h-7.7905c-.5949 0-1.0752-.4835-1.0752-1.0752v-28.7635c0-.5949.4835-1.0752 1.0752-1.0752h7.7905c.5948 0 1.0752.4803 1.0752 1.0752v28.7635c0 .5917-.4804 1.0752-1.0752 1.0752zm-34.6771-.3722 12.9152-25.7001c.2672-.5312.0541-1.177-.4772-1.4442l-6.9602-3.4992c-.5312-.2672-1.177-.0541-1.4442.4772l-12.9153 25.7c-.26716.5313-.054 1.177.4772 1.4443l6.9602 3.4992c.5313.264 1.1771.0509 1.4443-.4772zm19.1152-.1018 5.5255-28.0127c.1145-.5822-.2608-1.1452-.843-1.2629l-7.6378-1.5428c-.5821-.1177-1.1515.2608-1.2692.8429v.0032l-5.5256 28.0127c-.1145.5822.2609 1.1452.843 1.2629l7.6378 1.5429c.5821.1177 1.1516-.2609 1.2693-.843 0 0 0 0 0-.0032z" fill="#fff"/></mask><mask id="c" height="38" maskUnits="userSpaceOnUse" width="51" x="7" y="13"><path d="m57.4657 13.2827h-50.19129v37.1457h50.19129z" fill="#fff"/></mask><mask id="d" height="38" maskUnits="userSpaceOnUse" width="51" x="7" y="13"><path d="m57.4657 13.2827h-50.19129v37.1457h50.19129z" fill="#fff"/></mask><g clip-path="url(#a)"><path d="m64 0h-64v64h64z" fill="#6010be"/><path d="m53.674 47.3139h-7.7905c-.5949 0-1.0752-.4835-1.0752-1.0752v-28.7635c0-.5949.4835-1.0752 1.0752-1.0752h7.7905c.5948 0 1.0752.4803 1.0752 1.0752v28.7635c0 .5917-.4804 1.0752-1.0752 1.0752zm-34.6771-.3722 12.9152-25.7001c.2672-.5312.0541-1.177-.4772-1.4442l-6.9602-3.4992c-.5312-.2672-1.177-.0541-1.4442.4772l-12.9153 25.7c-.26716.5313-.054 1.177.4772 1.4443l6.9602 3.4992c.5313.264 1.1771.0509 1.4443-.4772zm19.1152-.1018 5.5255-28.0127c.1145-.5822-.2608-1.1452-.843-1.2629l-7.6378-1.5428c-.5821-.1177-1.1515.2608-1.2692.8429v.0032l-5.5256 28.0127c-.1145.5822.2609 1.1452.843 1.2629l7.6378 1.5429c.5821.1177 1.1516-.2609 1.2693-.843 0 0 0 0 0-.0032z" fill="#fff"/><g mask="url(#b)"><path d="m57.4657 13.2827h-50.19129v37.1457h50.19129z" fill="#fff"/><g mask="url(#c)"><path d="m57.4657 13.2827h-50.19129v37.1457h50.19129z" fill="#fff"/><g mask="url(#d)"><path d="m57.4842 13.0278h-50.36311v37.5783h50.36311z" fill="#fff"/></g></g></g></g></svg>