<svg fill="none" height="130" viewBox="0 0 113 130" width="113" xmlns="http://www.w3.org/2000/svg"><path clip-rule="evenodd" d="m4.34792 23.9448c.36707-.0413.8156.4887 1.18374 1.5106.73414 1.9993 3.95742 10.0834 12.32504 13.0645 8.284 2.9799 15.7524.5701 20.9772-3.7977 1.9591-1.5519 2.6107-.6527.8568 2.2045-2.3262 3.7967-6.0816 5.96-10.4082 8.3285-.8558.4898-1.8766.8981.1227 1.8375 11.5507 5.3887 26.6103 9.1864 39.9963 9.1864 9.9576 0 19.5904-1.5519 24.6913-1.92 4.8968-.3671 14.2442-.0413 16.4882 10.7382 1.592 7.6345 1.469 29.9658 1.387 51.3177 0 1.511.123 2.41-1.591 2.41-5.551-.041-5.754.204-6.244 1.592-.817 2.286-1.021 3.429-1.632 5.797-.491 1.96-.858 2.654-2.164 2.654-1.4288 0-6.2442 0-6.8556 0-1.1023 0-1.6323-1.266-.7352-2.981 8.8568-15.922 8.1638-28.2925 2.9789-35.0691-1.6323 6.2879-2.3251 9.0626-3.1429 9.6761-10.6917 8.084-16.1195 25.271-16.5691 26.659-.4898 1.266-1.1435 1.756-2.816 1.756-1.1012 0-6.5301 0-7.5911 0-2.2035 0-2.0808-1.552-.7754-3.062 11.8765-12.698 14.8966-17.433 18.3653-28.2112 3.51-10.8197-4.6926-14.2493-10.9773-8.6141-16.3258-7.4314-20.6514 2.286-19.6718 7.7149 1.5095 8.6164 7.3055 23.2314 7.6726 30.1304.1227 1.756-1.3879 2.123-2.3273 2.123-.8156 0-7.224 0-7.224 0-2.2438 0-1.3456-2.163-1.1827-3.143 3.6728-17.761-3.8369-27.8854-11.3867-32.6214-4.4896 3.3079-10.4484 22.7004-11.1815 33.2744-.0825 1.265-.7765 2.409-1.8386 2.409-.9785 0-6.8146 0-8.4057 0-1.3477 0-1.592-1.511-.5712-3.348 4.3245-7.799 11.1-20.005 10.9784-32.9469 0-1.4291 0-5.9197-2.0829-8.3686-4.6112-5.5125-7.1405-12.2087-9.5492-16.494-1.6323-2.8996-3.7131-3.8792-5.3454-4.1648-1.756-.3269-3.06139.1629-4.53075-.531-1.46935-.6538-2.24476-2.1644-3.38829-3.4698-.97852-1.1023-1.713723-2.6954-.57124-4.1647 2.08185-2.5717 3.42849-4.0823 3.79557-5.1444.36813-1.0621.28667-1.5106.36813-2.45.04126-.8568 1.79517-3.0201 3.46869-4.9401.61144-.7342.08146-2.0406-1.06208-3.3069-1.14142-1.2641-4.44826-5.7959-4.44826-13.35 0-1.5107.28667-2.2036.61355-2.285zm30.64908 29.3945c-.6928-.0413-.9795.2856-1.5095.9785-7.4695 10.2485-9.0203 15.8011-8.3666 19.9659.6527 4.1637 4.2029 8.3285 9.5091 11.4724 5.3051 3.0614 8.5696 4.8174 12.1621 8.7357.4485.4486.9372.5713 1.1023-.2856 1.8364-12.0034 11.8754-13.7595 24.9758-13.513 18.4468.2856 21.9991 6.327 24.283 5.3887 2.2046-1.0621 3.7148-10.4103 4.1228-16.9848.448-6.6952.858-12.0839-7.3873-11.4312 1.9591 4.0019 2.3273 8.412-1.2652 10.9012-3.6316 2.5314-6.2445 1.3064-6.2445-1.0621 0-2.0819-.3258-5.4289-2.9377-8.4914-1.2662.1629-2.2849.2856-3.5501.4094.7743 3.5925 1.7137 10.2474-1.0208 12.9407-2.7346 2.6943-10.4897 2.9398-18.4881 2.3273-1.5096-.1217-3.3872-.7352-4.2039-2.6542-.4073-.897-1.0208-3.2254-1.1837-13.4315-1.3879-.2031-2.4892-.3671-3.876-.6929-1.4292 9.8391-4.7349 13.4717-8.2047 14.3286-3.4687.8579-7.4272.0412-6.692-3.511.6517-3.4285 2.3665-7.3066 2.6933-14.1244-2.1231-.7765-3.2232-1.225-3.9183-1.2663zm56.1571 4.6546c-1.591.1629-3.1016.367-4.5709.6114 1.6735 2.4098 2.6129 5.0629 2.6943 8.6141.4887.2041 2.7747-.7342 3.3047-2.3675.4909-1.6735.3671-3.5512-1.4281-6.858zm-49.0959-2.3686c-.4908 3.8792-1.3064 8.6564-2.1644 11.4724-.897 2.8171 1.5508 2.5727 2.6531 2.1231 1.4694-.6125 4.2039-3.1027 5.6331-11.9632-2.0417-.4887-4.0823-1.0198-6.1218-1.6323zm15.8339 3.3883c.2042 3.0625.2454 7.6758.7352 10.167.4486 2.1633 1.2663 2.285 2.0808 2.4077 2.98.4485 13.3871.8992 15.7123-1.4292 1.4291-1.4693 1.5529-6.5724.5321-10.4917-6.2847.367-12.7344.2041-19.0604-.6538zm-43.7506-15.5134c-.53.0815-.9785.3671-1.4693.7754-1.6725 1.5106-3.42749 3.8792-3.71311 4.6546-.36707.7754-.16291 2.6541-.89811 3.6326-.6527.9394-2.36642 3.2254-2.36642 3.2254-1.46935 1.8375-.77646 1.9613.81561 3.8792 1.4281 1.7962 4.77413-.5723 8.65213 2.4902 1.9592 1.5508 4.3266 7.3086 6.0404 9.5936 1.3064-8.2057 6.4476-14.8607 7.9582-17.3921 2.4902-3.9183.2443-2.9789-6.9787-7.3891-4.4884-2.6944-6.5301-3.7956-8.0407-3.4698zm1.1837 5.1846c.6125 0 1.0621.0814 1.1436.2856.2856.7352-3.1831 5.0216-4.9804 2.4098-1.3043-1.8798 2.0015-2.7356 3.8368-2.6954zm90.3588 26.0887c-.204.0402-.367.1629-.367.4073-.45 5.8795-1.756 12.9417-1.306 15.2288.408 2.4489 1.795 8.3284 2.081 10.9004.244 2 1.143 1.225 1.265.244.53-3.9595 1.388-23.882-1.102-26.496-.163-.2031-.408-.2845-.571-.2845zm-80.1547-73.73224c9.3863 0 16.9362 7.5922 16.9362 16.98274 0 9.3493-7.5499 17.0251-16.9362 17.0251-9.3049 0-16.93728-7.5944-16.93728-17.0251 0-9.30697 7.55098-16.98274 16.93728-16.98274zm.4887 3.99974c-6.2032 0-11.2629 4.9814-11.2629 11.228 0 6.2054 5.0597 11.227 11.2629 11.227 6.2445 0 11.2249-5.0216 11.2249-11.227 0-6.1651-4.9804-11.228-11.2249-11.228z" fill="#111" fill-rule="evenodd"/></svg>