<svg width="656" height="80" viewBox="0 0 656 80" fill="none" xmlns="http://www.w3.org/2000/svg">
<g id="EDGARAS">
<g id="word">
<g id="E">
<ellipse id="dot" cx="4.00007" cy="4.00006" rx="4.00007" ry="4.00006" fill="black"/>
<ellipse id="dot_2" cx="11.9981" cy="4.00006" rx="4.00007" ry="4.00006" fill="black"/>
<ellipse id="dot_3" cx="19.9981" cy="4.00006" rx="4.00007" ry="4.00006" fill="black"/>
<ellipse id="dot_4" cx="28.0001" cy="4.00006" rx="4.00007" ry="4.00006" fill="black"/>
<ellipse id="dot_5" cx="36.002" cy="4.00006" rx="4.00007" ry="4.00006" fill="black"/>
<ellipse id="dot_6" cx="44.0001" cy="4.00006" rx="4.00007" ry="4.00006" fill="black"/>
<ellipse id="dot_7" cx="52.0001" cy="4.00006" rx="4.00007" ry="4.00006" fill="black"/>
<ellipse id="dot_8" cx="59.9962" cy="4.00006" rx="4.00007" ry="4.00006" fill="black"/>
<ellipse id="dot_9" cx="4.00007" cy="12.0004" rx="4.00007" ry="4.00006" fill="black"/>
<ellipse id="dot_10" cx="11.9981" cy="12.0004" rx="4.00007" ry="4.00006" fill="black"/>
<ellipse id="dot_11" cx="19.9981" cy="12.0004" rx="4.00007" ry="4.00006" fill="black"/>
<ellipse id="dot_12" cx="28.0001" cy="12.0004" rx="4.00007" ry="4.00006" fill="black"/>
<ellipse id="dot_13" cx="36.002" cy="12.0004" rx="4.00007" ry="4.00006" fill="black"/>
<ellipse id="dot_14" cx="44.0001" cy="12.0004" rx="4.00007" ry="4.00006" fill="black"/>
<ellipse id="dot_15" cx="52.0001" cy="12.0004" rx="4.00007" ry="4.00006" fill="black"/>
<ellipse id="dot_16" cx="59.9962" cy="12.0004" rx="4.00007" ry="4.00006" fill="black"/>
<ellipse id="dot_17" cx="4.00007" cy="20.0006" rx="4.00007" ry="4.00006" fill="black"/>
<ellipse id="dot_18" cx="11.9981" cy="20.0006" rx="4.00007" ry="4.00006" fill="black"/>
<ellipse id="dot_19" cx="19.9981" cy="20.0006" rx="4.00007" ry="4.00006" fill="black"/>
<ellipse id="dot_20" cx="28.0001" cy="20.0006" rx="4.00007" ry="4.00006" fill="black"/>
<ellipse id="dot_21" cx="4.00007" cy="28.0006" rx="4.00007" ry="4.00006" fill="black"/>
<ellipse id="dot_22" cx="11.9981" cy="28.0006" rx="4.00007" ry="4.00006" fill="black"/>
<ellipse id="dot_23" cx="19.9981" cy="28.0006" rx="4.00007" ry="4.00006" fill="black"/>
<ellipse id="dot_24" cx="28.0001" cy="28.0006" rx="4.00007" ry="4.00006" fill="black"/>
<ellipse id="dot_25" cx="4.00007" cy="36.0009" rx="4.00007" ry="4.00006" fill="black"/>
<ellipse id="dot_26" cx="11.9981" cy="36.0009" rx="4.00007" ry="4.00006" fill="black"/>
<ellipse id="dot_27" cx="19.9981" cy="36.0009" rx="4.00007" ry="4.00006" fill="black"/>
<ellipse id="dot_28" cx="28.0001" cy="36.0009" rx="4.00007" ry="4.00006" fill="black"/>
<ellipse id="dot_29" cx="36.002" cy="36.0009" rx="4.00007" ry="4.00006" fill="black"/>
<ellipse id="dot_30" cx="44.0001" cy="36.0009" rx="4.00007" ry="4.00006" fill="black"/>
<ellipse id="dot_31" cx="52.0001" cy="36.0009" rx="4.00007" ry="4.00006" fill="black"/>
<ellipse id="dot_32" cx="59.9962" cy="36.0009" rx="4.00007" ry="4.00006" fill="black"/>
<ellipse id="dot_33" cx="4.00007" cy="44.0009" rx="4.00007" ry="4.00006" fill="black"/>
<ellipse id="dot_34" cx="11.9981" cy="44.0009" rx="4.00007" ry="4.00006" fill="black"/>
<ellipse id="dot_35" cx="19.9981" cy="44.0009" rx="4.00007" ry="4.00006" fill="black"/>
<ellipse id="dot_36" cx="28.0001" cy="44.0009" rx="4.00007" ry="4.00006" fill="black"/>
<ellipse id="dot_37" cx="36.002" cy="44.0009" rx="4.00007" ry="4.00006" fill="black"/>
<ellipse id="dot_38" cx="44.0001" cy="44.0009" rx="4.00007" ry="4.00006" fill="black"/>
<ellipse id="dot_39" cx="52.0001" cy="44.0009" rx="4.00007" ry="4.00006" fill="black"/>
<ellipse id="dot_40" cx="59.9962" cy="44.0009" rx="4.00007" ry="4.00006" fill="black"/>
<ellipse id="dot_41" cx="4.00007" cy="52.0013" rx="4.00007" ry="4.00006" fill="black"/>
<ellipse id="dot_42" cx="11.9981" cy="52.0013" rx="4.00007" ry="4.00006" fill="black"/>
<ellipse id="dot_43" cx="19.9981" cy="52.0013" rx="4.00007" ry="4.00006" fill="black"/>
<ellipse id="dot_44" cx="28.0001" cy="52.0013" rx="4.00007" ry="4.00006" fill="black"/>
<ellipse id="dot_45" cx="4.00007" cy="60.0013" rx="4.00007" ry="4.00006" fill="black"/>
<ellipse id="dot_46" cx="11.9981" cy="60.0013" rx="4.00007" ry="4.00006" fill="black"/>
<ellipse id="dot_47" cx="19.9981" cy="60.0013" rx="4.00007" ry="4.00006" fill="black"/>
<ellipse id="dot_48" cx="28.0001" cy="60.0013" rx="4.00007" ry="4.00006" fill="black"/>
<ellipse id="dot_49" cx="4.00007" cy="68.0013" rx="4.00007" ry="4.00006" fill="black"/>
<ellipse id="dot_50" cx="11.9981" cy="68.0013" rx="4.00007" ry="4.00006" fill="black"/>
<ellipse id="dot_51" cx="19.9981" cy="68.0013" rx="4.00007" ry="4.00006" fill="black"/>
<ellipse id="dot_52" cx="28.0001" cy="68.0013" rx="4.00007" ry="4.00006" fill="black"/>
<ellipse id="dot_53" cx="36.002" cy="68.0013" rx="4.00007" ry="4.00006" fill="black"/>
<ellipse id="dot_54" cx="44.0001" cy="68.0013" rx="4.00007" ry="4.00006" fill="black"/>
<ellipse id="dot_55" cx="52.0001" cy="68.0013" rx="4.00007" ry="4.00006" fill="black"/>
<ellipse id="dot_56" cx="59.9962" cy="68.0013" rx="4.00007" ry="4.00006" fill="black"/>
<ellipse id="dot_57" cx="4.00007" cy="76.0013" rx="4.00007" ry="4.00006" fill="black"/>
<ellipse id="dot_58" cx="11.9981" cy="76.0013" rx="4.00007" ry="4.00006" fill="black"/>
<ellipse id="dot_59" cx="19.9981" cy="76.0013" rx="4.00007" ry="4.00006" fill="black"/>
<ellipse id="dot_60" cx="28.0001" cy="76.0013" rx="4.00007" ry="4.00006" fill="black"/>
<ellipse id="dot_61" cx="36.002" cy="76.0013" rx="4.00007" ry="4.00006" fill="black"/>
<ellipse id="dot_62" cx="44.0001" cy="76.0013" rx="4.00007" ry="4.00006" fill="black"/>
<ellipse id="dot_63" cx="52.0001" cy="76.0013" rx="4.00007" ry="4.00006" fill="black"/>
<ellipse id="dot_64" cx="59.9962" cy="76.0013" rx="4.00007" ry="4.00006" fill="black"/>
</g>
<g id="D">
<ellipse id="dot_65" cx="76.002" cy="4.00006" rx="4.00007" ry="4.00006" fill="black"/>
<ellipse id="dot_66" cx="83.9981" cy="4.00006" rx="4.00007" ry="4.00006" fill="black"/>
<ellipse id="dot_67" cx="92.0001" cy="4.00006" rx="4.00007" ry="4.00006" fill="black"/>
<ellipse id="dot_68" cx="100" cy="4.00006" rx="4.00007" ry="4.00006" fill="black"/>
<ellipse id="dot_69" cx="108.004" cy="4.00006" rx="4.00007" ry="4.00006" fill="black"/>
<ellipse id="dot_70" cx="116" cy="4.00006" rx="4.00007" ry="4.00006" fill="black"/>
<ellipse id="dot_71" cx="124.002" cy="4.00006" rx="4.00007" ry="4.00006" fill="black"/>
<ellipse id="dot_72" cx="131.996" cy="4.00006" rx="4.00007" ry="4.00006" fill="black"/>
<ellipse id="dot_73" cx="140" cy="4.00006" rx="4.00007" ry="4.00006" fill="black"/>
<ellipse id="dot_74" cx="76.002" cy="12.0004" rx="4.00007" ry="4.00006" fill="black"/>
<ellipse id="dot_75" cx="83.9981" cy="12.0004" rx="4.00007" ry="4.00006" fill="black"/>
<ellipse id="dot_76" cx="92.0001" cy="12.0004" rx="4.00007" ry="4.00006" fill="black"/>
<ellipse id="dot_77" cx="100" cy="12.0004" rx="4.00007" ry="4.00006" fill="black"/>
<ellipse id="dot_78" cx="108.004" cy="12.0004" rx="4.00007" ry="4.00006" fill="black"/>
<ellipse id="dot_79" cx="116" cy="12.0004" rx="4.00007" ry="4.00006" fill="black"/>
<ellipse id="dot_80" cx="124.002" cy="12.0004" rx="4.00007" ry="4.00006" fill="black"/>
<ellipse id="dot_81" cx="131.996" cy="12.0004" rx="4.00007" ry="4.00006" fill="black"/>
<ellipse id="dot_82" cx="140" cy="12.0004" rx="4.00007" ry="4.00006" fill="black"/>
<ellipse id="dot_83" cx="148" cy="12.0004" rx="4.00007" ry="4.00006" fill="black"/>
<ellipse id="dot_84" cx="156" cy="12.0004" rx="4.00007" ry="4.00006" fill="black"/>
<ellipse id="dot_85" cx="76.002" cy="20.0006" rx="4.00007" ry="4.00006" fill="black"/>
<ellipse id="dot_86" cx="83.9981" cy="20.0006" rx="4.00007" ry="4.00006" fill="black"/>
<ellipse id="dot_87" cx="92.0001" cy="20.0006" rx="4.00007" ry="4.00006" fill="black"/>
<ellipse id="dot_88" cx="100" cy="20.0006" rx="4.00007" ry="4.00006" fill="black"/>
<ellipse id="dot_89" cx="131.996" cy="20.0006" rx="4.00007" ry="4.00006" fill="black"/>
<ellipse id="dot_90" cx="140" cy="20.0006" rx="4.00007" ry="4.00006" fill="black"/>
<ellipse id="dot_91" cx="148" cy="20.0006" rx="4.00007" ry="4.00006" fill="black"/>
<ellipse id="dot_92" cx="156" cy="20.0006" rx="4.00007" ry="4.00006" fill="black"/>
<ellipse id="dot_93" cx="76.002" cy="28.0006" rx="4.00007" ry="4.00006" fill="black"/>
<ellipse id="dot_94" cx="83.9981" cy="28.0006" rx="4.00007" ry="4.00006" fill="black"/>
<ellipse id="dot_95" cx="92.0001" cy="28.0006" rx="4.00007" ry="4.00006" fill="black"/>
<ellipse id="dot_96" cx="100" cy="28.0006" rx="4.00007" ry="4.00006" fill="black"/>
<ellipse id="dot_97" cx="140" cy="28.0006" rx="4.00007" ry="4.00006" fill="black"/>
<ellipse id="dot_98" cx="148" cy="28.0006" rx="4.00007" ry="4.00006" fill="black"/>
<ellipse id="dot_99" cx="156" cy="28.0006" rx="4.00007" ry="4.00006" fill="black"/>
<ellipse id="dot_100" cx="163.998" cy="28.0006" rx="4.00007" ry="4.00006" fill="black"/>
<ellipse id="dot_101" cx="76.002" cy="36.0009" rx="4.00007" ry="4.00006" fill="black"/>
<ellipse id="dot_102" cx="83.9981" cy="36.0009" rx="4.00007" ry="4.00006" fill="black"/>
<ellipse id="dot_103" cx="92.0001" cy="36.0009" rx="4.00007" ry="4.00006" fill="black"/>
<ellipse id="dot_104" cx="100" cy="36.0009" rx="4.00007" ry="4.00006" fill="black"/>
<ellipse id="dot_105" cx="140" cy="36.0009" rx="4.00007" ry="4.00006" fill="black"/>
<ellipse id="dot_106" cx="148" cy="36.0009" rx="4.00007" ry="4.00006" fill="black"/>
<ellipse id="dot_107" cx="156" cy="36.0009" rx="4.00007" ry="4.00006" fill="black"/>
<ellipse id="dot_108" cx="163.998" cy="36.0009" rx="4.00007" ry="4.00006" fill="black"/>
<ellipse id="dot_109" cx="76.002" cy="44.0009" rx="4.00007" ry="4.00006" fill="black"/>
<ellipse id="dot_110" cx="83.9981" cy="44.0009" rx="4.00007" ry="4.00006" fill="black"/>
<ellipse id="dot_111" cx="92.0001" cy="44.0009" rx="4.00007" ry="4.00006" fill="black"/>
<ellipse id="dot_112" cx="100" cy="44.0009" rx="4.00007" ry="4.00006" fill="black"/>
<ellipse id="dot_113" cx="140" cy="44.0009" rx="4.00007" ry="4.00006" fill="black"/>
<ellipse id="dot_114" cx="148" cy="44.0009" rx="4.00007" ry="4.00006" fill="black"/>
<ellipse id="dot_115" cx="156" cy="44.0009" rx="4.00007" ry="4.00006" fill="black"/>
<ellipse id="dot_116" cx="163.998" cy="44.0009" rx="4.00007" ry="4.00006" fill="black"/>
<ellipse id="dot_117" cx="76.002" cy="52.0013" rx="4.00007" ry="4.00006" fill="black"/>
<ellipse id="dot_118" cx="83.9981" cy="52.0013" rx="4.00007" ry="4.00006" fill="black"/>
<ellipse id="dot_119" cx="92.0001" cy="52.0013" rx="4.00007" ry="4.00006" fill="black"/>
<ellipse id="dot_120" cx="100" cy="52.0013" rx="4.00007" ry="4.00006" fill="black"/>
<ellipse id="dot_121" cx="140" cy="52.0013" rx="4.00007" ry="4.00006" fill="black"/>
<ellipse id="dot_122" cx="148" cy="52.0013" rx="4.00007" ry="4.00006" fill="black"/>
<ellipse id="dot_123" cx="156" cy="52.0013" rx="4.00007" ry="4.00006" fill="black"/>
<ellipse id="dot_124" cx="163.998" cy="52.0013" rx="4.00007" ry="4.00006" fill="black"/>
<ellipse id="dot_125" cx="76.002" cy="60.0013" rx="4.00007" ry="4.00006" fill="black"/>
<ellipse id="dot_126" cx="83.9981" cy="60.0013" rx="4.00007" ry="4.00006" fill="black"/>
<ellipse id="dot_127" cx="92.0001" cy="60.0013" rx="4.00007" ry="4.00006" fill="black"/>
<ellipse id="dot_128" cx="100" cy="60.0013" rx="4.00007" ry="4.00006" fill="black"/>
<ellipse id="dot_129" cx="131.996" cy="60.0013" rx="4.00007" ry="4.00006" fill="black"/>
<ellipse id="dot_130" cx="140" cy="60.0013" rx="4.00007" ry="4.00006" fill="black"/>
<ellipse id="dot_131" cx="148" cy="60.0013" rx="4.00007" ry="4.00006" fill="black"/>
<ellipse id="dot_132" cx="156" cy="60.0013" rx="4.00007" ry="4.00006" fill="black"/>
<ellipse id="dot_133" cx="76.002" cy="68.0013" rx="4.00007" ry="4.00006" fill="black"/>
<ellipse id="dot_134" cx="83.9981" cy="68.0013" rx="4.00007" ry="4.00006" fill="black"/>
<ellipse id="dot_135" cx="92.0001" cy="68.0013" rx="4.00007" ry="4.00006" fill="black"/>
<ellipse id="dot_136" cx="100" cy="68.0013" rx="4.00007" ry="4.00006" fill="black"/>
<ellipse id="dot_137" cx="108.004" cy="68.0013" rx="4.00007" ry="4.00006" fill="black"/>
<ellipse id="dot_138" cx="116" cy="68.0013" rx="4.00007" ry="4.00006" fill="black"/>
<ellipse id="dot_139" cx="124.002" cy="68.0013" rx="4.00007" ry="4.00006" fill="black"/>
<ellipse id="dot_140" cx="131.996" cy="68.0013" rx="4.00007" ry="4.00006" fill="black"/>
<ellipse id="dot_141" cx="140" cy="68.0013" rx="4.00007" ry="4.00006" fill="black"/>
<ellipse id="dot_142" cx="148" cy="68.0013" rx="4.00007" ry="4.00006" fill="black"/>
<ellipse id="dot_143" cx="156" cy="68.0013" rx="4.00007" ry="4.00006" fill="black"/>
<ellipse id="dot_144" cx="76.002" cy="76.0013" rx="4.00007" ry="4.00006" fill="black"/>
<ellipse id="dot_145" cx="83.9981" cy="76.0013" rx="4.00007" ry="4.00006" fill="black"/>
<ellipse id="dot_146" cx="92.0001" cy="76.0013" rx="4.00007" ry="4.00006" fill="black"/>
<ellipse id="dot_147" cx="100" cy="76.0013" rx="4.00007" ry="4.00006" fill="black"/>
<ellipse id="dot_148" cx="108.004" cy="76.0013" rx="4.00007" ry="4.00006" fill="black"/>
<ellipse id="dot_149" cx="116" cy="76.0013" rx="4.00007" ry="4.00006" fill="black"/>
<ellipse id="dot_150" cx="124.002" cy="76.0013" rx="4.00007" ry="4.00006" fill="black"/>
<ellipse id="dot_151" cx="131.996" cy="76.0013" rx="4.00007" ry="4.00006" fill="black"/>
<ellipse id="dot_152" cx="140" cy="76.0013" rx="4.00007" ry="4.00006" fill="black"/>
</g>
<g id="G">
<ellipse id="dot_153" cx="204" cy="4.00006" rx="4.00007" ry="4.00006" fill="black"/>
<ellipse id="dot_154" cx="211.998" cy="4.00006" rx="4.00007" ry="4.00006" fill="black"/>
<ellipse id="dot_155" cx="220.002" cy="4.00006" rx="4.00007" ry="4.00006" fill="black"/>
<ellipse id="dot_156" cx="227.996" cy="4.00006" rx="4.00007" ry="4.00006" fill="black"/>
<ellipse id="dot_157" cx="236" cy="4.00006" rx="4.00007" ry="4.00006" fill="black"/>
<ellipse id="dot_158" cx="243.998" cy="4.00006" rx="4.00007" ry="4.00006" fill="black"/>
<ellipse id="dot_159" cx="188.004" cy="12.0004" rx="4.00007" ry="4.00006" fill="black"/>
<ellipse id="dot_160" cx="196.002" cy="12.0004" rx="4.00007" ry="4.00006" fill="black"/>
<ellipse id="dot_161" cx="204" cy="12.0004" rx="4.00007" ry="4.00006" fill="black"/>
<ellipse id="dot_162" cx="211.998" cy="12.0004" rx="4.00007" ry="4.00006" fill="black"/>
<ellipse id="dot_163" cx="220.002" cy="12.0004" rx="4.00007" ry="4.00006" fill="black"/>
<ellipse id="dot_164" cx="227.996" cy="12.0004" rx="4.00007" ry="4.00006" fill="black"/>
<ellipse id="dot_165" cx="236" cy="12.0004" rx="4.00007" ry="4.00006" fill="black"/>
<ellipse id="dot_166" cx="243.998" cy="12.0004" rx="4.00007" ry="4.00006" fill="black"/>
<ellipse id="dot_167" cx="252.002" cy="12.0004" rx="4.00007" ry="4.00006" fill="black"/>
<ellipse id="dot_168" cx="259.998" cy="12.0004" rx="4.00007" ry="4.00006" fill="black"/>
<ellipse id="dot_169" cx="188.004" cy="20.0006" rx="4.00007" ry="4.00006" fill="black"/>
<ellipse id="dot_170" cx="196.002" cy="20.0006" rx="4.00007" ry="4.00006" fill="black"/>
<ellipse id="dot_171" cx="204" cy="20.0006" rx="4.00007" ry="4.00006" fill="black"/>
<ellipse id="dot_172" cx="211.998" cy="20.0006" rx="4.00007" ry="4.00006" fill="black"/>
<ellipse id="dot_173" cx="243.998" cy="20.0006" rx="4.00007" ry="4.00006" fill="black"/>
<ellipse id="dot_174" cx="252.002" cy="20.0006" rx="4.00007" ry="4.00006" fill="black"/>
<ellipse id="dot_175" cx="259.998" cy="20.0006" rx="4.00007" ry="4.00006" fill="black"/>
<ellipse id="dot_176" cx="267.998" cy="20.0006" rx="4.00007" ry="4.00006" fill="black"/>
<ellipse id="dot_177" cx="180" cy="28.0006" rx="4.00007" ry="4.00006" fill="black"/>
<ellipse id="dot_178" cx="188.004" cy="28.0006" rx="4.00007" ry="4.00006" fill="black"/>
<ellipse id="dot_179" cx="196.002" cy="28.0006" rx="4.00007" ry="4.00006" fill="black"/>
<ellipse id="dot_180" cx="204" cy="28.0006" rx="4.00007" ry="4.00006" fill="black"/>
<ellipse id="dot_181" cx="180" cy="36.0009" rx="4.00007" ry="4.00006" fill="black"/>
<ellipse id="dot_182" cx="188.004" cy="36.0009" rx="4.00007" ry="4.00006" fill="black"/>
<ellipse id="dot_183" cx="196.002" cy="36.0009" rx="4.00007" ry="4.00006" fill="black"/>
<ellipse id="dot_184" cx="204" cy="36.0009" rx="4.00007" ry="4.00006" fill="black"/>
<ellipse id="dot_185" cx="227.996" cy="36.0009" rx="4.00007" ry="4.00006" fill="black"/>
<ellipse id="dot_186" cx="236" cy="36.0009" rx="4.00007" ry="4.00006" fill="black"/>
<ellipse id="dot_187" cx="243.998" cy="36.0009" rx="4.00007" ry="4.00006" fill="black"/>
<ellipse id="dot_188" cx="252.002" cy="36.0009" rx="4.00007" ry="4.00006" fill="black"/>
<ellipse id="dot_189" cx="259.998" cy="36.0009" rx="4.00007" ry="4.00006" fill="black"/>
<ellipse id="dot_190" cx="267.998" cy="36.0009" rx="4.00007" ry="4.00006" fill="black"/>
<ellipse id="dot_191" cx="180" cy="44.0009" rx="4.00007" ry="4.00006" fill="black"/>
<ellipse id="dot_192" cx="188.004" cy="44.0009" rx="4.00007" ry="4.00006" fill="black"/>
<ellipse id="dot_193" cx="196.002" cy="44.0009" rx="4.00007" ry="4.00006" fill="black"/>
<ellipse id="dot_194" cx="204" cy="44.0009" rx="4.00007" ry="4.00006" fill="black"/>
<ellipse id="dot_195" cx="227.996" cy="44.0009" rx="4.00007" ry="4.00006" fill="black"/>
<ellipse id="dot_196" cx="236" cy="44.0009" rx="4.00007" ry="4.00006" fill="black"/>
<ellipse id="dot_197" cx="243.998" cy="44.0009" rx="4.00007" ry="4.00006" fill="black"/>
<ellipse id="dot_198" cx="252.002" cy="44.0009" rx="4.00007" ry="4.00006" fill="black"/>
<ellipse id="dot_199" cx="259.998" cy="44.0009" rx="4.00007" ry="4.00006" fill="black"/>
<ellipse id="dot_200" cx="267.998" cy="44.0009" rx="4.00007" ry="4.00006" fill="black"/>
<ellipse id="dot_201" cx="180" cy="52.0013" rx="4.00007" ry="4.00006" fill="black"/>
<ellipse id="dot_202" cx="188.004" cy="52.0013" rx="4.00007" ry="4.00006" fill="black"/>
<ellipse id="dot_203" cx="196.002" cy="52.0013" rx="4.00007" ry="4.00006" fill="black"/>
<ellipse id="dot_204" cx="204" cy="52.0013" rx="4.00007" ry="4.00006" fill="black"/>
<ellipse id="dot_205" cx="252.002" cy="52.0013" rx="4.00007" ry="4.00006" fill="black"/>
<ellipse id="dot_206" cx="259.998" cy="52.0013" rx="4.00007" ry="4.00006" fill="black"/>
<ellipse id="dot_207" cx="267.998" cy="52.0013" rx="4.00007" ry="4.00006" fill="black"/>
<ellipse id="dot_208" cx="188.004" cy="60.0013" rx="4.00007" ry="4.00006" fill="black"/>
<ellipse id="dot_209" cx="196.002" cy="60.0013" rx="4.00007" ry="4.00006" fill="black"/>
<ellipse id="dot_210" cx="204" cy="60.0013" rx="4.00007" ry="4.00006" fill="black"/>
<ellipse id="dot_211" cx="211.998" cy="60.0013" rx="4.00007" ry="4.00006" fill="black"/>
<ellipse id="dot_212" cx="243.998" cy="60.0013" rx="4.00007" ry="4.00006" fill="black"/>
<ellipse id="dot_213" cx="252.002" cy="60.0013" rx="4.00007" ry="4.00006" fill="black"/>
<ellipse id="dot_214" cx="259.998" cy="60.0013" rx="4.00007" ry="4.00006" fill="black"/>
<ellipse id="dot_215" cx="267.998" cy="60.0013" rx="4.00007" ry="4.00006" fill="black"/>
<ellipse id="dot_216" cx="188.004" cy="68.0013" rx="4.00007" ry="4.00006" fill="black"/>
<ellipse id="dot_217" cx="196.002" cy="68.0013" rx="4.00007" ry="4.00006" fill="black"/>
<ellipse id="dot_218" cx="204" cy="68.0013" rx="4.00007" ry="4.00006" fill="black"/>
<ellipse id="dot_219" cx="211.998" cy="68.0013" rx="4.00007" ry="4.00006" fill="black"/>
<ellipse id="dot_220" cx="220.002" cy="68.0013" rx="4.00007" ry="4.00006" fill="black"/>
<ellipse id="dot_221" cx="227.996" cy="68.0013" rx="4.00007" ry="4.00006" fill="black"/>
<ellipse id="dot_222" cx="236" cy="68.0013" rx="4.00007" ry="4.00006" fill="black"/>
<ellipse id="dot_223" cx="243.998" cy="68.0013" rx="4.00007" ry="4.00006" fill="black"/>
<ellipse id="dot_224" cx="252.002" cy="68.0013" rx="4.00007" ry="4.00006" fill="black"/>
<ellipse id="dot_225" cx="259.998" cy="68.0013" rx="4.00007" ry="4.00006" fill="black"/>
<ellipse id="dot_226" cx="267.998" cy="68.0013" rx="4.00007" ry="4.00006" fill="black"/>
<ellipse id="dot_227" cx="204" cy="76.0013" rx="4.00007" ry="4.00006" fill="black"/>
<ellipse id="dot_228" cx="211.998" cy="76.0013" rx="4.00007" ry="4.00006" fill="black"/>
<ellipse id="dot_229" cx="220.002" cy="76.0013" rx="4.00007" ry="4.00006" fill="black"/>
<ellipse id="dot_230" cx="227.996" cy="76.0013" rx="4.00007" ry="4.00006" fill="black"/>
<ellipse id="dot_231" cx="236" cy="76.0013" rx="4.00007" ry="4.00006" fill="black"/>
<ellipse id="dot_232" cx="243.998" cy="76.0013" rx="4.00007" ry="4.00006" fill="black"/>
<ellipse id="dot_233" cx="259.998" cy="76.0013" rx="4.00007" ry="4.00006" fill="black"/>
<ellipse id="dot_234" cx="267.998" cy="76.0013" rx="4.00007" ry="4.00006" fill="black"/>
</g>
<g id="A">
<ellipse id="dot_235" cx="307.998" cy="4.00006" rx="4.00007" ry="4.00006" fill="black"/>
<ellipse id="dot_236" cx="316" cy="4.00006" rx="4.00007" ry="4.00006" fill="black"/>
<ellipse id="dot_237" cx="324.002" cy="4.00006" rx="4.00007" ry="4.00006" fill="black"/>
<ellipse id="dot_238" cx="331.998" cy="4.00006" rx="4.00007" ry="4.00006" fill="black"/>
<ellipse id="dot_239" cx="339.996" cy="4.00006" rx="4.00007" ry="4.00006" fill="black"/>
<ellipse id="dot_240" cx="307.998" cy="12.0004" rx="4.00007" ry="4.00006" fill="black"/>
<ellipse id="dot_241" cx="316" cy="12.0004" rx="4.00007" ry="4.00006" fill="black"/>
<ellipse id="dot_242" cx="324.002" cy="12.0004" rx="4.00007" ry="4.00006" fill="black"/>
<ellipse id="dot_243" cx="331.998" cy="12.0004" rx="4.00007" ry="4.00006" fill="black"/>
<ellipse id="dot_244" cx="339.996" cy="12.0004" rx="4.00007" ry="4.00006" fill="black"/>
<ellipse id="dot_245" cx="299.996" cy="20.0006" rx="4.00007" ry="4.00006" fill="black"/>
<ellipse id="dot_246" cx="307.998" cy="20.0006" rx="4.00007" ry="4.00006" fill="black"/>
<ellipse id="dot_247" cx="316" cy="20.0006" rx="4.00007" ry="4.00006" fill="black"/>
<ellipse id="dot_248" cx="324.002" cy="20.0006" rx="4.00007" ry="4.00006" fill="black"/>
<ellipse id="dot_249" cx="331.998" cy="20.0006" rx="4.00007" ry="4.00006" fill="black"/>
<ellipse id="dot_250" cx="339.996" cy="20.0006" rx="4.00007" ry="4.00006" fill="black"/>
<ellipse id="dot_251" cx="348.002" cy="20.0006" rx="4.00007" ry="4.00006" fill="black"/>
<ellipse id="dot_252" cx="299.996" cy="28.0006" rx="4.00007" ry="4.00006" fill="black"/>
<ellipse id="dot_253" cx="307.998" cy="28.0006" rx="4.00007" ry="4.00006" fill="black"/>
<ellipse id="dot_254" cx="316" cy="28.0006" rx="4.00007" ry="4.00006" fill="black"/>
<ellipse id="dot_255" cx="324.002" cy="28.0006" rx="4.00007" ry="4.00006" fill="black"/>
<ellipse id="dot_256" cx="331.998" cy="28.0006" rx="4.00007" ry="4.00006" fill="black"/>
<ellipse id="dot_257" cx="339.996" cy="28.0006" rx="4.00007" ry="4.00006" fill="black"/>
<ellipse id="dot_258" cx="348.002" cy="28.0006" rx="4.00007" ry="4.00006" fill="black"/>
<ellipse id="dot_259" cx="292" cy="36.0009" rx="4.00007" ry="4.00006" fill="black"/>
<ellipse id="dot_260" cx="299.996" cy="36.0009" rx="4.00007" ry="4.00006" fill="black"/>
<ellipse id="dot_261" cx="307.998" cy="36.0009" rx="4.00007" ry="4.00006" fill="black"/>
<ellipse id="dot_262" cx="331.998" cy="36.0009" rx="4.00007" ry="4.00006" fill="black"/>
<ellipse id="dot_263" cx="339.996" cy="36.0009" rx="4.00007" ry="4.00006" fill="black"/>
<ellipse id="dot_264" cx="348.002" cy="36.0009" rx="4.00007" ry="4.00006" fill="black"/>
<ellipse id="dot_265" cx="356" cy="36.0009" rx="4.00007" ry="4.00006" fill="black"/>
<ellipse id="dot_266" cx="292" cy="44.0009" rx="4.00007" ry="4.00006" fill="black"/>
<ellipse id="dot_267" cx="299.996" cy="44.0009" rx="4.00007" ry="4.00006" fill="black"/>
<ellipse id="dot_268" cx="307.998" cy="44.0009" rx="4.00007" ry="4.00006" fill="black"/>
<ellipse id="dot_269" cx="331.998" cy="44.0009" rx="4.00007" ry="4.00006" fill="black"/>
<ellipse id="dot_270" cx="339.996" cy="44.0009" rx="4.00007" ry="4.00006" fill="black"/>
<ellipse id="dot_271" cx="348.002" cy="44.0009" rx="4.00007" ry="4.00006" fill="black"/>
<ellipse id="dot_272" cx="356" cy="44.0009" rx="4.00007" ry="4.00006" fill="black"/>
<ellipse id="dot_273" cx="292" cy="52.0013" rx="4.00007" ry="4.00006" fill="black"/>
<ellipse id="dot_274" cx="299.996" cy="52.0013" rx="4.00007" ry="4.00006" fill="black"/>
<ellipse id="dot_275" cx="307.998" cy="52.0013" rx="4.00007" ry="4.00006" fill="black"/>
<ellipse id="dot_276" cx="316" cy="52.0013" rx="4.00007" ry="4.00006" fill="black"/>
<ellipse id="dot_277" cx="324.002" cy="52.0013" rx="4.00007" ry="4.00006" fill="black"/>
<ellipse id="dot_278" cx="331.998" cy="52.0013" rx="4.00007" ry="4.00006" fill="black"/>
<ellipse id="dot_279" cx="339.996" cy="52.0013" rx="4.00007" ry="4.00006" fill="black"/>
<ellipse id="dot_280" cx="348.002" cy="52.0013" rx="4.00007" ry="4.00006" fill="black"/>
<ellipse id="dot_281" cx="356" cy="52.0013" rx="4.00007" ry="4.00006" fill="black"/>
<ellipse id="dot_282" cx="284.002" cy="60.0013" rx="4.00007" ry="4.00006" fill="black"/>
<ellipse id="dot_283" cx="292" cy="60.0013" rx="4.00007" ry="4.00006" fill="black"/>
<ellipse id="dot_284" cx="299.996" cy="60.0013" rx="4.00007" ry="4.00006" fill="black"/>
<ellipse id="dot_285" cx="307.998" cy="60.0013" rx="4.00007" ry="4.00006" fill="black"/>
<ellipse id="dot_286" cx="316" cy="60.0013" rx="4.00007" ry="4.00006" fill="black"/>
<ellipse id="dot_287" cx="324.002" cy="60.0013" rx="4.00007" ry="4.00006" fill="black"/>
<ellipse id="dot_288" cx="331.998" cy="60.0013" rx="4.00007" ry="4.00006" fill="black"/>
<ellipse id="dot_289" cx="339.996" cy="60.0013" rx="4.00007" ry="4.00006" fill="black"/>
<ellipse id="dot_290" cx="348.002" cy="60.0013" rx="4.00007" ry="4.00006" fill="black"/>
<ellipse id="dot_291" cx="356" cy="60.0013" rx="4.00007" ry="4.00006" fill="black"/>
<ellipse id="dot_292" cx="363.998" cy="60.0013" rx="4.00007" ry="4.00006" fill="black"/>
<ellipse id="dot_293" cx="284.002" cy="68.0013" rx="4.00007" ry="4.00006" fill="black"/>
<ellipse id="dot_294" cx="292" cy="68.0013" rx="4.00007" ry="4.00006" fill="black"/>
<ellipse id="dot_295" cx="299.996" cy="68.0013" rx="4.00007" ry="4.00006" fill="black"/>
<ellipse id="dot_296" cx="339.996" cy="68.0013" rx="4.00007" ry="4.00006" fill="black"/>
<ellipse id="dot_297" cx="348.002" cy="68.0013" rx="4.00007" ry="4.00006" fill="black"/>
<ellipse id="dot_298" cx="356" cy="68.0013" rx="4.00007" ry="4.00006" fill="black"/>
<ellipse id="dot_299" cx="363.998" cy="68.0013" rx="4.00007" ry="4.00006" fill="black"/>
<ellipse id="dot_300" cx="284.002" cy="76.0013" rx="4.00007" ry="4.00006" fill="black"/>
<ellipse id="dot_301" cx="292" cy="76.0013" rx="4.00007" ry="4.00006" fill="black"/>
<ellipse id="dot_302" cx="299.996" cy="76.0013" rx="4.00007" ry="4.00006" fill="black"/>
<ellipse id="dot_303" cx="339.996" cy="76.0013" rx="4.00007" ry="4.00006" fill="black"/>
<ellipse id="dot_304" cx="348.002" cy="76.0013" rx="4.00007" ry="4.00006" fill="black"/>
<ellipse id="dot_305" cx="356" cy="76.0013" rx="4.00007" ry="4.00006" fill="black"/>
<ellipse id="dot_306" cx="363.998" cy="76.0013" rx="4.00007" ry="4.00006" fill="black"/>
</g>
<g id="R">
<ellipse id="dot_307" cx="380.002" cy="4.00006" rx="4.00007" ry="4.00006" fill="black"/>
<ellipse id="dot_308" cx="387.998" cy="4.00006" rx="4.00007" ry="4.00006" fill="black"/>
<ellipse id="dot_309" cx="396" cy="4.00006" rx="4.00007" ry="4.00006" fill="black"/>
<ellipse id="dot_310" cx="403.998" cy="4.00006" rx="4.00007" ry="4.00006" fill="black"/>
<ellipse id="dot_311" cx="412" cy="4.00006" rx="4.00007" ry="4.00006" fill="black"/>
<ellipse id="dot_312" cx="419.996" cy="4.00006" rx="4.00007" ry="4.00006" fill="black"/>
<ellipse id="dot_313" cx="428" cy="4.00006" rx="4.00007" ry="4.00006" fill="black"/>
<ellipse id="dot_314" cx="435.998" cy="4.00006" rx="4.00007" ry="4.00006" fill="black"/>
<ellipse id="dot_315" cx="444" cy="4.00006" rx="4.00007" ry="4.00006" fill="black"/>
<ellipse id="dot_316" cx="380.002" cy="12.0004" rx="4.00007" ry="4.00006" fill="black"/>
<ellipse id="dot_317" cx="387.998" cy="12.0004" rx="4.00007" ry="4.00006" fill="black"/>
<ellipse id="dot_318" cx="396" cy="12.0004" rx="4.00007" ry="4.00006" fill="black"/>
<ellipse id="dot_319" cx="403.998" cy="12.0004" rx="4.00007" ry="4.00006" fill="black"/>
<ellipse id="dot_320" cx="412" cy="12.0004" rx="4.00007" ry="4.00006" fill="black"/>
<ellipse id="dot_321" cx="419.996" cy="12.0004" rx="4.00007" ry="4.00006" fill="black"/>
<ellipse id="dot_322" cx="428" cy="12.0004" rx="4.00007" ry="4.00006" fill="black"/>
<ellipse id="dot_323" cx="435.998" cy="12.0004" rx="4.00007" ry="4.00006" fill="black"/>
<ellipse id="dot_324" cx="444" cy="12.0004" rx="4.00007" ry="4.00006" fill="black"/>
<ellipse id="dot_325" cx="452.002" cy="12.0004" rx="4.00007" ry="4.00006" fill="black"/>
<ellipse id="dot_326" cx="459.996" cy="12.0004" rx="4.00007" ry="4.00006" fill="black"/>
<ellipse id="dot_327" cx="380.002" cy="20.0006" rx="4.00007" ry="4.00006" fill="black"/>
<ellipse id="dot_328" cx="387.998" cy="20.0006" rx="4.00007" ry="4.00006" fill="black"/>
<ellipse id="dot_329" cx="396" cy="20.0006" rx="4.00007" ry="4.00006" fill="black"/>
<ellipse id="dot_330" cx="403.998" cy="20.0006" rx="4.00007" ry="4.00006" fill="black"/>
<ellipse id="dot_331" cx="435.998" cy="20.0006" rx="4.00007" ry="4.00006" fill="black"/>
<ellipse id="dot_332" cx="444" cy="20.0006" rx="4.00007" ry="4.00006" fill="black"/>
<ellipse id="dot_333" cx="452.002" cy="20.0006" rx="4.00007" ry="4.00006" fill="black"/>
<ellipse id="dot_334" cx="459.996" cy="20.0006" rx="4.00007" ry="4.00006" fill="black"/>
<ellipse id="dot_335" cx="380.002" cy="28.0006" rx="4.00007" ry="4.00006" fill="black"/>
<ellipse id="dot_336" cx="387.998" cy="28.0006" rx="4.00007" ry="4.00006" fill="black"/>
<ellipse id="dot_337" cx="396" cy="28.0006" rx="4.00007" ry="4.00006" fill="black"/>
<ellipse id="dot_338" cx="403.998" cy="28.0006" rx="4.00007" ry="4.00006" fill="black"/>
<ellipse id="dot_339" cx="435.998" cy="28.0006" rx="4.00007" ry="4.00006" fill="black"/>
<ellipse id="dot_340" cx="444" cy="28.0006" rx="4.00007" ry="4.00006" fill="black"/>
<ellipse id="dot_341" cx="452.002" cy="28.0006" rx="4.00007" ry="4.00006" fill="black"/>
<ellipse id="dot_342" cx="459.996" cy="28.0006" rx="4.00007" ry="4.00006" fill="black"/>
<ellipse id="dot_343" cx="380.002" cy="36.0009" rx="4.00007" ry="4.00006" fill="black"/>
<ellipse id="dot_344" cx="387.998" cy="36.0009" rx="4.00007" ry="4.00006" fill="black"/>
<ellipse id="dot_345" cx="396" cy="36.0009" rx="4.00007" ry="4.00006" fill="black"/>
<ellipse id="dot_346" cx="403.998" cy="36.0009" rx="4.00007" ry="4.00006" fill="black"/>
<ellipse id="dot_347" cx="435.998" cy="36.0009" rx="4.00007" ry="4.00006" fill="black"/>
<ellipse id="dot_348" cx="444" cy="36.0009" rx="4.00007" ry="4.00006" fill="black"/>
<ellipse id="dot_349" cx="452.002" cy="36.0009" rx="4.00007" ry="4.00006" fill="black"/>
<ellipse id="dot_350" cx="459.996" cy="36.0009" rx="4.00007" ry="4.00006" fill="black"/>
<ellipse id="dot_351" cx="380.002" cy="44.0009" rx="4.00007" ry="4.00006" fill="black"/>
<ellipse id="dot_352" cx="387.998" cy="44.0009" rx="4.00007" ry="4.00006" fill="black"/>
<ellipse id="dot_353" cx="396" cy="44.0009" rx="4.00007" ry="4.00006" fill="black"/>
<ellipse id="dot_354" cx="403.998" cy="44.0009" rx="4.00007" ry="4.00006" fill="black"/>
<ellipse id="dot_355" cx="412" cy="44.0009" rx="4.00007" ry="4.00006" fill="black"/>
<ellipse id="dot_356" cx="419.996" cy="44.0009" rx="4.00007" ry="4.00006" fill="black"/>
<ellipse id="dot_357" cx="428" cy="44.0009" rx="4.00007" ry="4.00006" fill="black"/>
<ellipse id="dot_358" cx="435.998" cy="44.0009" rx="4.00007" ry="4.00006" fill="black"/>
<ellipse id="dot_359" cx="444" cy="44.0009" rx="4.00007" ry="4.00006" fill="black"/>
<ellipse id="dot_360" cx="452.002" cy="44.0009" rx="4.00007" ry="4.00006" fill="black"/>
<ellipse id="dot_361" cx="380.002" cy="52.0013" rx="4.00007" ry="4.00006" fill="black"/>
<ellipse id="dot_362" cx="387.998" cy="52.0013" rx="4.00007" ry="4.00006" fill="black"/>
<ellipse id="dot_363" cx="396" cy="52.0013" rx="4.00007" ry="4.00006" fill="black"/>
<ellipse id="dot_364" cx="403.998" cy="52.0013" rx="4.00007" ry="4.00006" fill="black"/>
<ellipse id="dot_365" cx="412" cy="52.0013" rx="4.00007" ry="4.00006" fill="black"/>
<ellipse id="dot_366" cx="419.996" cy="52.0013" rx="4.00007" ry="4.00006" fill="black"/>
<ellipse id="dot_367" cx="428" cy="52.0013" rx="4.00007" ry="4.00006" fill="black"/>
<ellipse id="dot_368" cx="435.998" cy="52.0013" rx="4.00007" ry="4.00006" fill="black"/>
<ellipse id="dot_369" cx="444" cy="52.0013" rx="4.00007" ry="4.00006" fill="black"/>
<ellipse id="dot_370" cx="380.002" cy="60.0013" rx="4.00007" ry="4.00006" fill="black"/>
<ellipse id="dot_371" cx="387.998" cy="60.0013" rx="4.00007" ry="4.00006" fill="black"/>
<ellipse id="dot_372" cx="396" cy="60.0013" rx="4.00007" ry="4.00006" fill="black"/>
<ellipse id="dot_373" cx="403.998" cy="60.0013" rx="4.00007" ry="4.00006" fill="black"/>
<ellipse id="dot_374" cx="419.996" cy="60.0013" rx="4.00007" ry="4.00006" fill="black"/>
<ellipse id="dot_375" cx="428" cy="60.0013" rx="4.00007" ry="4.00006" fill="black"/>
<ellipse id="dot_376" cx="435.998" cy="60.0013" rx="4.00007" ry="4.00006" fill="black"/>
<ellipse id="dot_377" cx="444" cy="60.0013" rx="4.00007" ry="4.00006" fill="black"/>
<ellipse id="dot_378" cx="452.002" cy="60.0013" rx="4.00007" ry="4.00006" fill="black"/>
<ellipse id="dot_379" cx="380.002" cy="68.0013" rx="4.00007" ry="4.00006" fill="black"/>
<ellipse id="dot_380" cx="387.998" cy="68.0013" rx="4.00007" ry="4.00006" fill="black"/>
<ellipse id="dot_381" cx="396" cy="68.0013" rx="4.00007" ry="4.00006" fill="black"/>
<ellipse id="dot_382" cx="403.998" cy="68.0013" rx="4.00007" ry="4.00006" fill="black"/>
<ellipse id="dot_383" cx="428" cy="68.0013" rx="4.00007" ry="4.00006" fill="black"/>
<ellipse id="dot_384" cx="435.998" cy="68.0013" rx="4.00007" ry="4.00006" fill="black"/>
<ellipse id="dot_385" cx="444" cy="68.0013" rx="4.00007" ry="4.00006" fill="black"/>
<ellipse id="dot_386" cx="452.002" cy="68.0013" rx="4.00007" ry="4.00006" fill="black"/>
<ellipse id="dot_387" cx="459.996" cy="68.0013" rx="4.00007" ry="4.00006" fill="black"/>
<ellipse id="dot_388" cx="380.002" cy="76.0013" rx="4.00007" ry="4.00006" fill="black"/>
<ellipse id="dot_389" cx="387.998" cy="76.0013" rx="4.00007" ry="4.00006" fill="black"/>
<ellipse id="dot_390" cx="396" cy="76.0013" rx="4.00007" ry="4.00006" fill="black"/>
<ellipse id="dot_391" cx="403.998" cy="76.0013" rx="4.00007" ry="4.00006" fill="black"/>
<ellipse id="dot_392" cx="435.998" cy="76.0013" rx="4.00007" ry="4.00006" fill="black"/>
<ellipse id="dot_393" cx="444" cy="76.0013" rx="4.00007" ry="4.00006" fill="black"/>
<ellipse id="dot_394" cx="452.002" cy="76.0013" rx="4.00007" ry="4.00006" fill="black"/>
<ellipse id="dot_395" cx="459.996" cy="76.0013" rx="4.00007" ry="4.00006" fill="black"/>
<ellipse id="dot_396" cx="467.996" cy="76.0013" rx="4.00007" ry="4.00006" fill="black"/>
</g>
<g id="A_2">
<ellipse id="dot_397" cx="508" cy="4.00006" rx="4.00007" ry="4.00006" fill="black"/>
<ellipse id="dot_398" cx="516.002" cy="4.00006" rx="4.00007" ry="4.00006" fill="black"/>
<ellipse id="dot_399" cx="524.002" cy="4.00006" rx="4.00007" ry="4.00006" fill="black"/>
<ellipse id="dot_400" cx="531.998" cy="4.00006" rx="4.00007" ry="4.00006" fill="black"/>
<ellipse id="dot_401" cx="539.998" cy="4.00006" rx="4.00007" ry="4.00006" fill="black"/>
<ellipse id="dot_402" cx="508" cy="12.0004" rx="4.00007" ry="4.00006" fill="black"/>
<ellipse id="dot_403" cx="516.002" cy="12.0004" rx="4.00007" ry="4.00006" fill="black"/>
<ellipse id="dot_404" cx="524.002" cy="12.0004" rx="4.00007" ry="4.00006" fill="black"/>
<ellipse id="dot_405" cx="531.998" cy="12.0004" rx="4.00007" ry="4.00006" fill="black"/>
<ellipse id="dot_406" cx="539.998" cy="12.0004" rx="4.00007" ry="4.00006" fill="black"/>
<ellipse id="dot_407" cx="500" cy="20.0006" rx="4.00007" ry="4.00006" fill="black"/>
<ellipse id="dot_408" cx="508" cy="20.0006" rx="4.00007" ry="4.00006" fill="black"/>
<ellipse id="dot_409" cx="516.002" cy="20.0006" rx="4.00007" ry="4.00006" fill="black"/>
<ellipse id="dot_410" cx="524.002" cy="20.0006" rx="4.00007" ry="4.00006" fill="black"/>
<ellipse id="dot_411" cx="531.998" cy="20.0006" rx="4.00007" ry="4.00006" fill="black"/>
<ellipse id="dot_412" cx="539.998" cy="20.0006" rx="4.00007" ry="4.00006" fill="black"/>
<ellipse id="dot_413" cx="548" cy="20.0006" rx="4.00007" ry="4.00006" fill="black"/>
<ellipse id="dot_414" cx="500" cy="28.0006" rx="4.00007" ry="4.00006" fill="black"/>
<ellipse id="dot_415" cx="508" cy="28.0006" rx="4.00007" ry="4.00006" fill="black"/>
<ellipse id="dot_416" cx="516.002" cy="28.0006" rx="4.00007" ry="4.00006" fill="black"/>
<ellipse id="dot_417" cx="524.002" cy="28.0006" rx="4.00007" ry="4.00006" fill="black"/>
<ellipse id="dot_418" cx="531.998" cy="28.0006" rx="4.00007" ry="4.00006" fill="black"/>
<ellipse id="dot_419" cx="539.998" cy="28.0006" rx="4.00007" ry="4.00006" fill="black"/>
<ellipse id="dot_420" cx="548" cy="28.0006" rx="4.00007" ry="4.00006" fill="black"/>
<ellipse id="dot_421" cx="492" cy="36.0009" rx="4.00007" ry="4.00006" fill="black"/>
<ellipse id="dot_422" cx="500" cy="36.0009" rx="4.00007" ry="4.00006" fill="black"/>
<ellipse id="dot_423" cx="508" cy="36.0009" rx="4.00007" ry="4.00006" fill="black"/>
<ellipse id="dot_424" cx="531.998" cy="36.0009" rx="4.00007" ry="4.00006" fill="black"/>
<ellipse id="dot_425" cx="539.998" cy="36.0009" rx="4.00007" ry="4.00006" fill="black"/>
<ellipse id="dot_426" cx="548" cy="36.0009" rx="4.00007" ry="4.00006" fill="black"/>
<ellipse id="dot_427" cx="556.006" cy="36.0009" rx="4.00007" ry="4.00006" fill="black"/>
<ellipse id="dot_428" cx="492" cy="44.0009" rx="4.00007" ry="4.00006" fill="black"/>
<ellipse id="dot_429" cx="500" cy="44.0009" rx="4.00007" ry="4.00006" fill="black"/>
<ellipse id="dot_430" cx="508" cy="44.0009" rx="4.00007" ry="4.00006" fill="black"/>
<ellipse id="dot_431" cx="531.998" cy="44.0009" rx="4.00007" ry="4.00006" fill="black"/>
<ellipse id="dot_432" cx="539.998" cy="44.0009" rx="4.00007" ry="4.00006" fill="black"/>
<ellipse id="dot_433" cx="548" cy="44.0009" rx="4.00007" ry="4.00006" fill="black"/>
<ellipse id="dot_434" cx="556.006" cy="44.0009" rx="4.00007" ry="4.00006" fill="black"/>
<ellipse id="dot_435" cx="492" cy="52.0013" rx="4.00007" ry="4.00006" fill="black"/>
<ellipse id="dot_436" cx="500" cy="52.0013" rx="4.00007" ry="4.00006" fill="black"/>
<ellipse id="dot_437" cx="508" cy="52.0013" rx="4.00007" ry="4.00006" fill="black"/>
<ellipse id="dot_438" cx="516.002" cy="52.0013" rx="4.00007" ry="4.00006" fill="black"/>
<ellipse id="dot_439" cx="524.002" cy="52.0013" rx="4.00007" ry="4.00006" fill="black"/>
<ellipse id="dot_440" cx="531.998" cy="52.0013" rx="4.00007" ry="4.00006" fill="black"/>
<ellipse id="dot_441" cx="539.998" cy="52.0013" rx="4.00007" ry="4.00006" fill="black"/>
<ellipse id="dot_442" cx="548" cy="52.0013" rx="4.00007" ry="4.00006" fill="black"/>
<ellipse id="dot_443" cx="556.006" cy="52.0013" rx="4.00007" ry="4.00006" fill="black"/>
<ellipse id="dot_444" cx="484.002" cy="60.0013" rx="4.00007" ry="4.00006" fill="black"/>
<ellipse id="dot_445" cx="492" cy="60.0013" rx="4.00007" ry="4.00006" fill="black"/>
<ellipse id="dot_446" cx="500" cy="60.0013" rx="4.00007" ry="4.00006" fill="black"/>
<ellipse id="dot_447" cx="508" cy="60.0013" rx="4.00007" ry="4.00006" fill="black"/>
<ellipse id="dot_448" cx="516.002" cy="60.0013" rx="4.00007" ry="4.00006" fill="black"/>
<ellipse id="dot_449" cx="524.002" cy="60.0013" rx="4.00007" ry="4.00006" fill="black"/>
<ellipse id="dot_450" cx="531.998" cy="60.0013" rx="4.00007" ry="4.00006" fill="black"/>
<ellipse id="dot_451" cx="539.998" cy="60.0013" rx="4.00007" ry="4.00006" fill="black"/>
<ellipse id="dot_452" cx="548" cy="60.0013" rx="4.00007" ry="4.00006" fill="black"/>
<ellipse id="dot_453" cx="556.006" cy="60.0013" rx="4.00007" ry="4.00006" fill="black"/>
<ellipse id="dot_454" cx="564" cy="60.0013" rx="4.00007" ry="4.00006" fill="black"/>
<ellipse id="dot_455" cx="484.002" cy="68.0013" rx="4.00007" ry="4.00006" fill="black"/>
<ellipse id="dot_456" cx="492" cy="68.0013" rx="4.00007" ry="4.00006" fill="black"/>
<ellipse id="dot_457" cx="500" cy="68.0013" rx="4.00007" ry="4.00006" fill="black"/>
<ellipse id="dot_458" cx="539.998" cy="68.0013" rx="4.00007" ry="4.00006" fill="black"/>
<ellipse id="dot_459" cx="548" cy="68.0013" rx="4.00007" ry="4.00006" fill="black"/>
<ellipse id="dot_460" cx="556.006" cy="68.0013" rx="4.00007" ry="4.00006" fill="black"/>
<ellipse id="dot_461" cx="564" cy="68.0013" rx="4.00007" ry="4.00006" fill="black"/>
<ellipse id="dot_462" cx="484.002" cy="76.0013" rx="4.00007" ry="4.00006" fill="black"/>
<ellipse id="dot_463" cx="492" cy="76.0013" rx="4.00007" ry="4.00006" fill="black"/>
<ellipse id="dot_464" cx="500" cy="76.0013" rx="4.00007" ry="4.00006" fill="black"/>
<ellipse id="dot_465" cx="539.998" cy="76.0013" rx="4.00007" ry="4.00006" fill="black"/>
<ellipse id="dot_466" cx="548" cy="76.0013" rx="4.00007" ry="4.00006" fill="black"/>
<ellipse id="dot_467" cx="556.006" cy="76.0013" rx="4.00007" ry="4.00006" fill="black"/>
<ellipse id="dot_468" cx="564" cy="76.0013" rx="4.00007" ry="4.00006" fill="black"/>
</g>
<g id="S">
<ellipse id="dot_469" cx="596.004" cy="4.00006" rx="4.00007" ry="4.00006" fill="black"/>
<ellipse id="dot_470" cx="604" cy="4.00006" rx="4.00007" ry="4.00006" fill="black"/>
<ellipse id="dot_471" cx="612.002" cy="4.00006" rx="4.00007" ry="4.00006" fill="black"/>
<ellipse id="dot_472" cx="620.004" cy="4.00006" rx="4.00007" ry="4.00006" fill="black"/>
<ellipse id="dot_473" cx="628.002" cy="4.00006" rx="4.00007" ry="4.00006" fill="black"/>
<ellipse id="dot_474" cx="636" cy="4.00006" rx="4.00007" ry="4.00006" fill="black"/>
<ellipse id="dot_475" cx="644.004" cy="4.00006" rx="4.00007" ry="4.00006" fill="black"/>
<ellipse id="dot_476" cx="588" cy="12.0004" rx="4.00007" ry="4.00006" fill="black"/>
<ellipse id="dot_477" cx="596.004" cy="12.0004" rx="4.00007" ry="4.00006" fill="black"/>
<ellipse id="dot_478" cx="604" cy="12.0004" rx="4.00007" ry="4.00006" fill="black"/>
<ellipse id="dot_479" cx="612.002" cy="12.0004" rx="4.00007" ry="4.00006" fill="black"/>
<ellipse id="dot_480" cx="620.004" cy="12.0004" rx="4.00007" ry="4.00006" fill="black"/>
<ellipse id="dot_481" cx="628.002" cy="12.0004" rx="4.00007" ry="4.00006" fill="black"/>
<ellipse id="dot_482" cx="636" cy="12.0004" rx="4.00007" ry="4.00006" fill="black"/>
<ellipse id="dot_483" cx="644.004" cy="12.0004" rx="4.00007" ry="4.00006" fill="black"/>
<ellipse id="dot_484" cx="652" cy="12.0004" rx="4.00007" ry="4.00006" fill="black"/>
<ellipse id="dot_485" cx="580" cy="20.0006" rx="4.00007" ry="4.00006" fill="black"/>
<ellipse id="dot_486" cx="588" cy="20.0006" rx="4.00007" ry="4.00006" fill="black"/>
<ellipse id="dot_487" cx="596.004" cy="20.0006" rx="4.00007" ry="4.00006" fill="black"/>
<ellipse id="dot_488" cx="604" cy="20.0006" rx="4.00007" ry="4.00006" fill="black"/>
<ellipse id="dot_489" cx="644.004" cy="20.0006" rx="4.00007" ry="4.00006" fill="black"/>
<ellipse id="dot_490" cx="652" cy="20.0006" rx="4.00007" ry="4.00006" fill="black"/>
<ellipse id="dot_491" cx="580" cy="28.0006" rx="4.00007" ry="4.00006" fill="black"/>
<ellipse id="dot_492" cx="588" cy="28.0006" rx="4.00007" ry="4.00006" fill="black"/>
<ellipse id="dot_493" cx="596.004" cy="28.0006" rx="4.00007" ry="4.00006" fill="black"/>
<ellipse id="dot_494" cx="604" cy="28.0006" rx="4.00007" ry="4.00006" fill="black"/>
<ellipse id="dot_495" cx="612.002" cy="28.0006" rx="4.00007" ry="4.00006" fill="black"/>
<ellipse id="dot_496" cx="620.004" cy="28.0006" rx="4.00007" ry="4.00006" fill="black"/>
<ellipse id="dot_497" cx="588" cy="36.0009" rx="4.00007" ry="4.00006" fill="black"/>
<ellipse id="dot_498" cx="596.004" cy="36.0009" rx="4.00007" ry="4.00006" fill="black"/>
<ellipse id="dot_499" cx="604" cy="36.0009" rx="4.00007" ry="4.00006" fill="black"/>
<ellipse id="dot_500" cx="612.002" cy="36.0009" rx="4.00007" ry="4.00006" fill="black"/>
<ellipse id="dot_501" cx="620.004" cy="36.0009" rx="4.00007" ry="4.00006" fill="black"/>
<ellipse id="dot_502" cx="628.002" cy="36.0009" rx="4.00007" ry="4.00006" fill="black"/>
<ellipse id="dot_503" cx="636" cy="36.0009" rx="4.00007" ry="4.00006" fill="black"/>
<ellipse id="dot_504" cx="596.004" cy="44.0009" rx="4.00007" ry="4.00006" fill="black"/>
<ellipse id="dot_505" cx="604" cy="44.0009" rx="4.00007" ry="4.00006" fill="black"/>
<ellipse id="dot_506" cx="612.002" cy="44.0009" rx="4.00007" ry="4.00006" fill="black"/>
<ellipse id="dot_507" cx="620.004" cy="44.0009" rx="4.00007" ry="4.00006" fill="black"/>
<ellipse id="dot_508" cx="628.002" cy="44.0009" rx="4.00007" ry="4.00006" fill="black"/>
<ellipse id="dot_509" cx="636" cy="44.0009" rx="4.00007" ry="4.00006" fill="black"/>
<ellipse id="dot_510" cx="644.004" cy="44.0009" rx="4.00007" ry="4.00006" fill="black"/>
<ellipse id="dot_511" cx="612.002" cy="52.0013" rx="4.00007" ry="4.00006" fill="black"/>
<ellipse id="dot_512" cx="620.004" cy="52.0013" rx="4.00007" ry="4.00006" fill="black"/>
<ellipse id="dot_513" cx="628.002" cy="52.0013" rx="4.00007" ry="4.00006" fill="black"/>
<ellipse id="dot_514" cx="636" cy="52.0013" rx="4.00007" ry="4.00006" fill="black"/>
<ellipse id="dot_515" cx="644.004" cy="52.0013" rx="4.00007" ry="4.00006" fill="black"/>
<ellipse id="dot_516" cx="652" cy="52.0013" rx="4.00007" ry="4.00006" fill="black"/>
<ellipse id="dot_517" cx="580" cy="60.0013" rx="4.00007" ry="4.00006" fill="black"/>
<ellipse id="dot_518" cx="588" cy="60.0013" rx="4.00007" ry="4.00006" fill="black"/>
<ellipse id="dot_519" cx="628.002" cy="60.0013" rx="4.00007" ry="4.00006" fill="black"/>
<ellipse id="dot_520" cx="636" cy="60.0013" rx="4.00007" ry="4.00006" fill="black"/>
<ellipse id="dot_521" cx="644.004" cy="60.0013" rx="4.00007" ry="4.00006" fill="black"/>
<ellipse id="dot_522" cx="652" cy="60.0013" rx="4.00007" ry="4.00006" fill="black"/>
<ellipse id="dot_523" cx="580" cy="68.0013" rx="4.00007" ry="4.00006" fill="black"/>
<ellipse id="dot_524" cx="588" cy="68.0013" rx="4.00007" ry="4.00006" fill="black"/>
<ellipse id="dot_525" cx="596.004" cy="68.0013" rx="4.00007" ry="4.00006" fill="black"/>
<ellipse id="dot_526" cx="604" cy="68.0013" rx="4.00007" ry="4.00006" fill="black"/>
<ellipse id="dot_527" cx="612.002" cy="68.0013" rx="4.00007" ry="4.00006" fill="black"/>
<ellipse id="dot_528" cx="620.004" cy="68.0013" rx="4.00007" ry="4.00006" fill="black"/>
<ellipse id="dot_529" cx="628.002" cy="68.0013" rx="4.00007" ry="4.00006" fill="black"/>
<ellipse id="dot_530" cx="636" cy="68.0013" rx="4.00007" ry="4.00006" fill="black"/>
<ellipse id="dot_531" cx="644.004" cy="68.0013" rx="4.00007" ry="4.00006" fill="black"/>
<ellipse id="dot_532" cx="588" cy="76.0013" rx="4.00007" ry="4.00006" fill="black"/>
<ellipse id="dot_533" cx="596.004" cy="76.0013" rx="4.00007" ry="4.00006" fill="black"/>
<ellipse id="dot_534" cx="604" cy="76.0013" rx="4.00007" ry="4.00006" fill="black"/>
<ellipse id="dot_535" cx="612.002" cy="76.0013" rx="4.00007" ry="4.00006" fill="black"/>
<ellipse id="dot_536" cx="620.004" cy="76.0013" rx="4.00007" ry="4.00006" fill="black"/>
<ellipse id="dot_537" cx="628.002" cy="76.0013" rx="4.00007" ry="4.00006" fill="black"/>
<ellipse id="dot_538" cx="636" cy="76.0013" rx="4.00007" ry="4.00006" fill="black"/>
</g>
</g>
</g>
</svg>
